<svg width="280" height="230" viewBox="0 0 280 230" fill="none" xmlns="http://www.w3.org/2000/svg">
<path d="M64.4376 129.917C80.539 141.722 44.8967 143.75 76.5139 155.884C102.011 165.67 49.6769 158.569 92.6189 182.724C135.561 206.879 206.683 184.065 193.264 171.988C179.845 159.91 232.122 174.672 217.419 155.884C193.264 125.02 245.6 149.175 217.419 120.994C189.238 92.8135 248.078 115.626 205.341 84.7618C175.819 63.4407 235.816 82.2641 205.341 61.9489C177.161 43.1629 219.829 56.0744 199.974 45.8459C155.69 23.0325 194.806 66.0312 155.69 48.5311C104.695 25.7169 140.929 67.3173 104.695 52.5567C71.0389 38.846 100.668 73.9443 83.2241 71.3431C35.4731 64.2224 90.333 103.549 67.1176 103.549C49.6718 103.549 48.3361 118.112 64.4376 129.917Z" fill="url(#paint0_linear_151_6141)"/>
<path fill-rule="evenodd" clip-rule="evenodd" d="M141 185.545C171.928 185.545 197 160.473 197 129.545C197 98.6175 171.928 73.5455 141 73.5455C110.072 73.5455 85 98.6175 85 129.545C85 160.473 110.072 185.545 141 185.545ZM141 180.455C169.117 180.455 191.909 157.662 191.909 129.545C191.909 101.429 169.117 78.6364 141 78.6364C112.884 78.6364 90.0911 101.429 90.0911 129.545C90.0911 157.662 112.884 180.455 141 180.455Z" fill="black"/>
<path fill-rule="evenodd" clip-rule="evenodd" d="M99.4091 175.322C96.7076 178.533 95.1836 182.627 95.1836 186.909V190.636C110.456 211 167.729 211 186.82 190.636C186.82 182.904 183.585 175.541 177.929 170.314C167.289 181.278 152.396 188.091 135.911 188.091C122.107 188.091 109.418 183.313 99.4091 175.322Z" fill="black"/>
<path d="M168.068 45.6035C154.343 47.0955 145.389 31.6042 152.685 31.8418C162.786 32.1707 176.601 44.6759 168.068 45.6035Z" fill="url(#paint1_linear_151_6141)"/>
<path d="M231.514 118.35C221.237 119.252 214.788 107.54 220.235 107.831C227.776 108.233 237.903 117.789 231.514 118.35Z" fill="url(#paint2_linear_151_6141)"/>
<path d="M116.121 47.8955C108.557 49.8677 102.258 41.9321 106.365 41.461C112.05 40.8088 120.824 46.6693 116.121 47.8955Z" fill="url(#paint3_linear_151_6141)"/>
<path d="M182.945 34.7684C175.381 36.7406 169.083 28.8051 173.189 28.334C178.874 27.6818 187.648 33.5422 182.945 34.7684Z" fill="url(#paint4_linear_151_6141)"/>
<path d="M194.865 68.7918C184.185 71.5763 175.293 60.3723 181.091 59.7071C189.117 58.7863 201.505 67.0606 194.865 68.7918Z" fill="white"/>
<path d="M144.865 57.7918C134.185 60.5763 125.293 49.3723 131.091 48.7071C139.117 47.7863 151.505 56.0606 144.865 57.7918Z" fill="white"/>
<circle cx="140.999" cy="129.545" r="50.9091" fill="white"/>
<path d="M197 129.545C197 160.473 171.928 185.545 141 185.545C110.072 185.545 85 160.473 85 129.545C85 98.6175 110.072 73.5455 141 73.5455C171.928 73.5455 197 98.6175 197 129.545Z" fill="black"/>
<path fill-rule="evenodd" clip-rule="evenodd" d="M95.3516 130.5C104.499 117.049 121.595 108 141.176 108C160.758 108 177.854 117.049 187.001 130.5C177.854 143.951 160.758 153 141.176 153C121.595 153 104.499 143.951 95.3516 130.5Z" fill="url(#paint5_linear_151_6141)"/>
<circle cx="141" cy="130" r="18" fill="white"/>
<defs>
<linearGradient id="paint0_linear_151_6141" x1="139.577" y1="39" x2="139.377" y2="192.963" gradientUnits="userSpaceOnUse">
<stop stop-color="#C447FF"/>
<stop offset="1" stop-color="#8256FD"/>
</linearGradient>
<linearGradient id="paint1_linear_151_6141" x1="152.991" y1="30.4805" x2="167.136" y2="47.339" gradientUnits="userSpaceOnUse">
<stop stop-color="#C447FF"/>
<stop offset="1" stop-color="#8256FD"/>
</linearGradient>
<linearGradient id="paint2_linear_151_6141" x1="220.485" y1="106.818" x2="230.791" y2="119.632" gradientUnits="userSpaceOnUse">
<stop stop-color="#C447FF"/>
<stop offset="1" stop-color="#8256FD"/>
</linearGradient>
<linearGradient id="paint3_linear_151_6141" x1="106.424" y1="40.6732" x2="115.742" y2="48.9447" gradientUnits="userSpaceOnUse">
<stop stop-color="#C447FF"/>
<stop offset="1" stop-color="#8256FD"/>
</linearGradient>
<linearGradient id="paint4_linear_151_6141" x1="173.248" y1="27.5462" x2="182.566" y2="35.8177" gradientUnits="userSpaceOnUse">
<stop stop-color="#C447FF"/>
<stop offset="1" stop-color="#8256FD"/>
</linearGradient>
<linearGradient id="paint5_linear_151_6141" x1="141.176" y1="108" x2="141.144" y2="152.88" gradientUnits="userSpaceOnUse">
<stop stop-color="#C447FF"/>
<stop offset="1" stop-color="#8256FD"/>
</linearGradient>
</defs>
</svg>
