<svg width="280" height="210" viewBox="0 0 280 210" fill="none" xmlns="http://www.w3.org/2000/svg">
<path d="M79.8748 95.4084C-1.33776 30.0565 -14.9263 69.0278 104.233 172.604C105.772 173.942 108.215 173.871 109.706 172.48C326.085 -29.4571 242.327 -49.8977 79.8748 95.4084Z" fill="#323232"/>
<path d="M23.0475 210L111 210C46.8215 177.911 73.1818 213.618 57.3766 201.165C41.5715 188.712 -10.4786 151.09 23.0475 210Z" fill="#323232"/>
<path d="M250.524 210L167 210C227.947 179.169 202.866 213.221 217.875 201.257C232.885 189.292 282.361 153.399 250.524 210Z" fill="#323232"/>
<path d="M144.624 32.3762L98.6911 67.3964C131.309 0.043984 128.783 46.1114 134.835 27.5258C145.437 -5.03372 183.191 2.75353 144.624 32.3762Z" fill="#323232"/>
<path d="M62.0526 210L86 210C57.2571 187.49 81.0974 214.155 67.95 204.518C53.5757 193.981 49.5939 196.111 62.0526 210Z" fill="#989898"/>
<path d="M178 210L154.053 210C182.796 187.49 159.538 214.177 172.685 204.54C187.06 194.003 190.459 196.111 178 210Z" fill="#989898"/>
<path d="M163.751 67.6296L96.6989 93.9716L106.278 104.508C125.914 97.8031 144.829 87.8934 166.625 72.898L163.751 67.6296Z" fill="#989898"/>
<path d="M197.205 48.9508C180.442 71.0589 165.693 88.4246 143.287 115.169L150.446 141.417L205.826 50.8274C207.293 48.6727 207.416 47.5091 204.868 45.5982L177.568 26.4404C177.568 36.4982 184.752 44.1613 197.205 48.9508Z" fill="#989898"/>
<path d="M76.5107 66.4708C65.9739 51.1445 45.3792 73.176 62.5566 83.3151C62.8082 80.4028 63.1707 78.8018 64.5368 76.0496L76.5107 66.4708Z" fill="#989898"/>
<path d="M80.0118 71.5895C104.768 46.355 67.8895 38.213 64.0581 79.8812C66.2345 70.7521 70.69 69.5052 78.0772 69.9281L80.0118 71.5895Z" fill="white"/>
<path d="M62.5898 83.1347L87.3024 110.808L92.1266 95.1376L81.1279 88.7363C92.875 83.1013 81.1751 72.2938 78.2899 69.7114C69.3392 68.0685 62.9978 74.8116 62.5898 83.1347Z" fill="#545454"/>
<path d="M150.446 92.4082C138.515 82.8634 127.351 114.087 123.041 126.54L104.362 101.156C111.546 97.8031 139.249 83.382 150.446 75.5L146.5 69C104.494 87.4017 48.3254 91.8775 74.1885 112.65C107.236 137.077 122.562 162.461 139.249 154.083V173.476C139.249 175.568 140.53 176.829 143.084 174.434C146.021 171.681 168.947 154.083 168.947 154.083C160.871 150.044 151.731 155.367 147.693 163.26C152.465 135.911 162.377 101.953 150.446 92.4082Z" fill="white"/>
<path d="M148.792 186.268C148.792 192.539 147.129 198.171 144.493 202.205C141.851 206.247 138.316 208.579 134.557 208.579C130.798 208.579 127.263 206.247 124.621 202.205C121.985 198.171 120.322 192.539 120.322 186.268C120.322 179.997 121.985 174.365 124.621 170.331C127.263 166.289 130.798 163.957 134.557 163.957C138.316 163.957 141.851 166.289 144.493 170.331C147.129 174.365 148.792 179.997 148.792 186.268Z" stroke="white" stroke-width="2"/>
<ellipse cx="197.205" cy="118.398" rx="33.0472" ry="50.2892" stroke="white" stroke-width="2"/>
<path d="M189.727 119.207L160.326 71.4612" stroke="white" stroke-width="2"/>
<path d="M164.58 71.4829H153.5H168.5" stroke="white" stroke-width="2"/>
<circle cx="190.644" cy="120.125" r="2.0191" fill="white"/>
<path d="M158.5 77.5C158.5 77.5 160.5 70.5 158 68C156 66 150.5 65.5 146 69L151 77.5H158.5Z" fill="#545454"/>
<path d="M173 77C174.92 72.6236 175.625 68.5 173 67C169.5 65 164.276 64.9637 162.731 67.9107L167 77L173 77Z" fill="#545454"/>
<path d="M210.148 79.6032L194.343 113.129" stroke="white" stroke-width="2" stroke-linecap="round"/>
<path d="M188.595 126.54L177 150.5" stroke="white" stroke-width="2" stroke-linecap="round"/>
<path d="M131.067 197.824L137.409 176.829" stroke="white" stroke-width="2" stroke-linecap="round"/>
<path d="M197.217 116.961L222.122 100.677" stroke="white" stroke-width="2" stroke-linecap="round"/>
<path d="M170.396 131.808L185.243 123.187" stroke="white" stroke-width="2" stroke-linecap="round"/>
<path d="M125.941 190.421L142.5 182.5" stroke="white" stroke-width="2" stroke-linecap="round"/>
<path d="M138.774 117.44L139.253 155.277C136.858 156.713 131.589 159.108 119.137 150.487C132.547 155.792 135.359 137.018 138.774 117.44Z" fill="#989898"/>
<path d="M86.6411 106.903C94.2446 104.651 101.009 102.593 104.362 101.156L123.041 126.54C113.941 116.961 101.967 110.256 86.6411 106.903Z" fill="#989898"/>
<path d="M65.9328 83.4401C68.1538 84.8766 67.9621 86.7874 67.9621 87.7453C67.1002 89.0779 64.915 89.1818 62.6939 87.7453C60.4729 86.3087 59.4886 84.5846 60.3505 83.252C61.2124 81.9194 63.7117 82.0036 65.9328 83.4401Z" fill="#545454"/>
</svg>
