<svg width="280" height="230" viewBox="0 0 280 230" fill="none" xmlns="http://www.w3.org/2000/svg">
<g clip-path="url(#clip0_151_6138)">
<path fill-rule="evenodd" clip-rule="evenodd" d="M132.967 85.504L132.967 85.504C127.415 86.8766 122.628 88.0601 98.463 68.7499L90.5435 75.5001L90.5256 75.4937C90.4226 75.5885 90.32 75.6832 90.2177 75.7778L88.9706 76.8408L89.0357 76.8813C68.0775 96.6337 64.7415 109.928 77.4086 116.232C62.0678 130.131 60.6551 142.487 72.5231 147.985C56.6582 162.214 57.8985 181.063 80.1603 183.177C64.4878 203.837 76.2368 227.545 135.076 195.626V206.295L151.35 213.038V195.626C216.632 226.013 222.774 201.885 211.459 182.657C234.42 180.542 228.213 160.244 215.007 146.872C229.542 140.713 226.05 126.416 213.515 116.301C225.405 110.576 217.986 97.7233 195.989 75.4937L195.005 75.7521L187.963 68.7499C186.894 69.3575 185.842 69.9651 184.79 70.5728L184.789 70.5732C176.5 75.3605 168.195 80.1565 151.349 85.0288V79.5378H135.077V85.0288C134.338 85.1652 133.647 85.336 132.967 85.504ZM200.98 170.566C200.968 170.556 200.955 170.546 200.942 170.536L200.914 170.548C189.079 167.28 172.582 160.735 151.35 149.659H135.114C64.7631 192.113 43.2765 168.664 88.9269 151.001C100.363 151.165 115.783 148.693 135.079 142.688H151.352C170.267 147.749 184.933 149.853 195.996 149.886C230.808 164.206 232.954 179.373 200.98 170.566ZM198.31 182.2C229.091 194.796 207.417 216.75 151.35 176.629H135.076C82.8859 212.233 65.0987 200.649 89.0815 183.179C100.552 182.255 115.8 177.938 135.114 168.657H151.35C171.581 176.558 186.923 180.719 198.31 182.2ZM199.345 119.443C188.404 120.402 172.717 119.86 151.761 118.067V119.992H134.751V118.067C114.291 120.777 98.4795 121.154 87.6024 119.292C47.8018 138.969 77.629 146.052 134.852 122.689H151.352C221.336 155.656 243.206 132.84 199.345 119.443ZM135.077 101.114C80.1464 118.865 48.247 107.345 99.1738 82.7253C116.418 91.9198 130.524 95.7196 135.077 95.7196H151.349C155.729 92.0901 162.86 89.6329 171.472 86.6651C175.215 85.3753 179.238 83.9891 183.436 82.3682C235.54 99.8839 217.613 118.752 151.35 101.114H135.077Z" fill="black"/>
<path d="M200.168 105.159C189.319 141.568 153.203 130.286 130.792 124.463C146.922 133.943 154.062 140.219 151.261 161.707C128.85 155.884 123.983 144.038 122.906 127.887C109.58 148.232 81.1944 146.683 78.3985 145.42C91.7245 125.076 101.147 119.588 119.228 121.641C119.228 121.641 57.7797 125.386 68.5752 71.4469C112.095 88.0453 125.509 117.983 125.509 117.983C137.452 113.144 165.307 96.101 200.168 105.159Z" fill="url(#paint0_linear_151_6138)"/>
<path fill-rule="evenodd" clip-rule="evenodd" d="M98.463 68.7499C126.94 85.0288 131.008 85.0288 135.077 85.0288V71.4469L151.349 79.5378V85.0288C172.61 78.809 175.758 76.8408 187.963 68.7499L195.005 75.7521L195.989 75.4937C217.986 97.7233 225.405 110.576 213.515 116.301C226.05 126.416 229.542 140.713 215.007 146.872C228.213 160.244 234.42 180.542 211.459 182.657C222.774 201.885 216.632 226.013 151.35 195.626V204.947H135.076V195.626C76.2368 227.545 64.4878 203.837 80.1603 183.177C57.8985 181.063 56.6582 162.214 72.5231 147.985C60.6551 142.487 62.0678 130.131 77.4086 116.232C71.8394 113.46 69.3636 109.338 70.1188 103.909C72.3452 105.554 74.4262 106.689 76.4526 107.461C80.6084 110.015 89.5424 110.575 101.639 108.518C101.933 108.528 102.231 108.54 102.532 108.554V108.363C111.924 106.688 123.153 103.465 135.488 98.4166H151.761C207.429 121.754 240.913 100.215 184.501 82.5131C169.467 89.7251 155.672 95.7196 151.349 95.7196H135.077C131.877 95.7196 118.609 92.3823 102.532 84.3952V76.8408L88.9706 76.8408L90.2177 75.7778C90.32 75.6832 90.4226 75.5885 90.5256 75.4937L90.5435 75.5001L98.463 68.7499ZM200.942 170.536L200.98 170.566C232.954 179.373 230.808 164.206 195.996 149.886C184.933 149.853 170.267 147.749 151.352 142.688H135.079C130.821 144.013 126.752 145.166 122.872 146.157V127.969C127.023 126.39 131.066 124.626 134.852 122.689H151.352C221.292 154.414 243.178 132.637 199.429 119.436C188.484 120.405 172.771 119.865 151.761 118.067H134.751C114.38 120.765 98.6167 121.15 87.7442 119.316C84.6399 120.844 81.9603 122.267 79.6732 123.589H79.4783L79.4564 123.715C64.3004 132.525 66.7221 136.77 77.1026 137.238L75.4101 146.962L107.617 149.403C100.52 150.576 94.2858 151.078 88.9269 151.001C45.7226 167.717 62.6532 189.616 124.229 155.927V163.144H156.774V152.443C175.412 161.847 190.107 167.564 200.914 170.548L200.942 170.536ZM151.35 173.932C206.701 217.008 228.954 194.846 198.209 182.187C186.832 180.695 171.521 176.534 151.35 168.657H135.114C115.901 177.89 100.711 182.209 89.2617 183.164C65.0103 201.047 82.7558 213.519 135.076 173.932H151.35Z" fill="black"/>
<path d="M186.606 144.265C194.93 176.415 177.446 185.978 159.041 193.385C166.268 191.62 175.76 194.159 181.184 204.947C171.692 207.644 160.843 207.644 155.383 199.754C156.775 218.432 141.719 219.226 139.146 219.78C136.434 206.502 143.215 202.25 149.638 197.333C149.638 197.333 109.315 219.781 93.0422 184.72C131.508 173.974 152.073 191.62 152.073 191.62C157.792 182.213 157.976 155.787 186.606 144.265Z" fill="url(#paint1_linear_151_6138)"/>
<path d="M224.386 67.8984C218.38 89.2655 200.535 85.1813 187.396 83.3399C197.204 87.6751 200.65 91.5964 200.165 102.462C187.026 100.621 184.822 94.9264 183.136 85.8067C176.905 98.2587 163.87 98.952 162.196 98.4166C163.552 86.2802 170.203 82.5135 180.628 82.494C180.628 82.494 144.356 86.2939 148.471 57.2589C174.338 63.8453 183.959 79.9997 183.959 79.9997C190.434 76.4617 203.947 65.0339 224.386 67.8984Z" fill="url(#paint2_linear_151_6138)"/>
<path d="M137.407 10.0001C143.192 27.6398 128.95 33.0531 119.006 37.8499C127.806 36.3286 132.013 37.4622 136.732 45.2437C126.788 50.0404 122.614 47.0996 117.207 41.536C118.689 53.0792 109.996 59.5905 108.588 59.9928C103.881 50.9243 106.729 45.2278 113.931 40.3921C113.931 40.3921 90.6106 59.8129 79.9512 37.7145C100.906 30.3309 115.075 37.1163 115.075 37.1163C117.907 31.6608 121.938 17.4616 137.407 10.0001Z" fill="url(#paint3_linear_151_6138)"/>
<path d="M58.4116 104.023C52.8063 118.554 40.6798 114.511 31.6728 112.349C38.1978 116.032 40.3293 119.001 39.2647 126.562C30.2577 124.4 29.1074 120.274 28.5473 113.789C23.3827 122.075 14.2788 121.691 13.1507 121.205C14.9062 112.815 19.7806 110.626 27.0263 111.307C27.0263 111.307 1.56609 111.545 6.37109 91.5296C23.9046 97.8557 29.5083 109.785 29.5083 109.785C34.2445 107.745 44.4007 100.659 58.4116 104.023Z" fill="url(#paint4_linear_151_6138)"/>
<path d="M278.412 157.618C272.806 172.15 260.68 168.107 251.673 165.944C258.198 169.627 260.329 172.597 259.265 180.158C250.258 177.995 249.107 173.869 248.547 167.384C243.383 175.671 234.279 175.287 233.151 174.801C234.906 166.41 239.781 164.221 247.026 164.902C247.026 164.902 221.566 165.141 226.371 145.125C243.905 151.451 249.508 163.381 249.508 163.381C254.245 161.34 264.401 154.255 278.412 157.618Z" fill="url(#paint5_linear_151_6138)"/>
<path d="M54.0304 164C58.5572 174.98 49.7275 179.109 43.6104 182.64C49.1528 181.253 51.8906 181.777 55.2703 186.517C49.1532 190.049 46.3513 188.371 42.6375 185.077C44.1301 192.372 38.8929 196.938 38.014 197.261C34.5809 191.699 36.128 187.929 40.4933 184.503C40.4933 184.503 26.5357 197.999 18.6875 184.405C31.7064 178.701 41.0678 182.359 41.0678 182.359C42.6163 178.744 44.515 169.494 54.0304 164Z" fill="url(#paint6_linear_151_6138)"/>
</g>
<defs>
<linearGradient id="paint0_linear_151_6138" x1="134.43" y1="88.0782" x2="116.918" y2="155.27" gradientUnits="userSpaceOnUse">
<stop stop-color="#C447FF"/>
<stop offset="1" stop-color="#8256FD"/>
</linearGradient>
<linearGradient id="paint1_linear_151_6138" x1="139.334" y1="163.289" x2="159.502" y2="213.516" gradientUnits="userSpaceOnUse">
<stop stop-color="#C447FF"/>
<stop offset="1" stop-color="#8256FD"/>
</linearGradient>
<linearGradient id="paint2_linear_151_6138" x1="186.428" y1="62.5786" x2="181.019" y2="100.973" gradientUnits="userSpaceOnUse">
<stop stop-color="#C447FF"/>
<stop offset="1" stop-color="#8256FD"/>
</linearGradient>
<linearGradient id="paint3_linear_151_6138" x1="108.679" y1="23.8573" x2="122.751" y2="53.0861" gradientUnits="userSpaceOnUse">
<stop stop-color="#C447FF"/>
<stop offset="1" stop-color="#8256FD"/>
</linearGradient>
<linearGradient id="paint4_linear_151_6138" x1="32.3913" y1="97.7761" x2="26.0186" y2="124.236" gradientUnits="userSpaceOnUse">
<stop stop-color="#C447FF"/>
<stop offset="1" stop-color="#8256FD"/>
</linearGradient>
<linearGradient id="paint5_linear_151_6138" x1="252.391" y1="151.372" x2="246.019" y2="177.832" gradientUnits="userSpaceOnUse">
<stop stop-color="#C447FF"/>
<stop offset="1" stop-color="#8256FD"/>
</linearGradient>
<linearGradient id="paint6_linear_151_6138" x1="36.3589" y1="174.203" x2="46.7224" y2="192.184" gradientUnits="userSpaceOnUse">
<stop stop-color="#C447FF"/>
<stop offset="1" stop-color="#8256FD"/>
</linearGradient>
<clipPath id="clip0_151_6138">
<rect width="280" height="230" fill="white"/>
</clipPath>
</defs>
</svg>
