<svg width="280" height="230" viewBox="0 0 280 230" fill="none" xmlns="http://www.w3.org/2000/svg">
<path fill-rule="evenodd" clip-rule="evenodd" d="M86.9864 157.808C75.9767 139.271 54.7044 103.454 115.867 48.3593C115.867 48.3593 143.049 96.2319 149.855 112.325H154.711C148.884 94.6115 158.757 75.4218 164.422 68.0411C166.583 71.0523 168.924 74.1853 171.339 77.4165C190.626 103.225 214.59 135.292 188.699 161.53H89.1623C88.5125 160.377 87.7758 159.137 86.9864 157.808ZM137.971 148.955C122.92 144.014 104.392 110.876 122.92 97.0706C136.184 87.1877 159.194 126.719 137.971 148.955Z" fill="url(#paint0_linear_151_6140)"/>
<path d="M148.75 71C132.744 60.8105 130.998 47.8421 136.757 27C153.546 37.6526 154 57.5 148.75 71Z" fill="url(#paint1_linear_151_6140)"/>
<path d="M207.028 105C199 100.5 197.5 89.5 203.502 81C209.503 88 211.103 98.0769 207.028 105Z" fill="url(#paint2_linear_151_6140)"/>
<path fill-rule="evenodd" clip-rule="evenodd" d="M215.75 160.634H64C79.1453 186.815 107.453 204.43 139.875 204.43C172.297 204.43 200.605 186.815 215.75 160.634Z" fill="black"/>
<defs>
<linearGradient id="paint0_linear_151_6140" x1="137.158" y1="48.3593" x2="137.01" y2="161.228" gradientUnits="userSpaceOnUse">
<stop stop-color="#C447FF"/>
<stop offset="1" stop-color="#8256FD"/>
</linearGradient>
<linearGradient id="paint1_linear_151_6140" x1="142.73" y1="27" x2="142.574" y2="70.8823" gradientUnits="userSpaceOnUse">
<stop stop-color="#C447FF"/>
<stop offset="1" stop-color="#8256FD"/>
</linearGradient>
<linearGradient id="paint2_linear_151_6140" x1="204.561" y1="81" x2="204.472" y2="104.936" gradientUnits="userSpaceOnUse">
<stop stop-color="#C447FF"/>
<stop offset="1" stop-color="#8256FD"/>
</linearGradient>
</defs>
</svg>
