<svg width="280" height="230" viewBox="0 0 280 230" fill="none" xmlns="http://www.w3.org/2000/svg">
<path d="M100.181 112.955C83.6959 109.834 61.4015 103.065 96.1803 150.41C108.665 167.405 39.9988 147.289 133.635 200.35C150.527 209.921 197.62 219.665 197.62 194.107C197.62 162.895 158.904 125.12 171.089 133.243C208.544 158.212 184.115 122.58 180.453 109.834C176.792 97.0876 216.347 139.485 189.817 92.6669C156.777 34.3615 203.862 89.5454 191.378 61.4549C182.874 42.3215 154.382 12.3954 158.605 28.6827C180.453 112.956 150.802 31.8037 136.756 24.0009C118.957 14.1128 172.65 112.956 121.15 48.9703C100.393 23.1807 125.663 93.9096 121.15 86.8185C110.226 69.651 93.0592 58.3345 89.938 64.5766C85.1828 74.0865 126.842 118.003 100.181 112.955Z" fill="url(#paint0_linear_151_6139)"/>
<path d="M95.4902 126.124L93.0625 79.6868C93.0625 72.3507 98.58 70.5115 100.346 77.3479L112.484 119.108C113.59 122.434 116.877 120.591 116.457 116.49V61.3158C116.972 53.9592 124.328 52.1198 126.167 61.3158L134.333 112.091C135.363 116.49 139.041 116.49 139.189 112.091V53.9592C139.189 48.4419 146.398 44.7634 148.899 53.9592L155.594 119.108C156.313 124.712 158.419 123.578 159.272 120.107L170.307 59.4767C172.146 52.12 179.503 52.12 180.018 59.4767L173.985 145.917C173.157 152.173 175.104 157.493 181.342 147.673L191.129 130.6C193.955 125.672 199.977 123.577 205.251 125.686V125.686L194.216 156.952C161.111 234.196 95.4902 212.043 95.4902 156.952V126.124Z" fill="black"/>
<path d="M139.04 132.958L141.576 158.01L166.628 160.546L141.576 163.082L139.04 188.133L136.505 163.082L111.453 160.546L136.505 158.01L139.04 132.958Z" fill="white"/>
<path d="M119.546 32.2467C95.5456 10.7468 112.547 4.31195 117.047 12.312C121.547 20.312 128.546 37.7467 119.546 32.2467Z" fill="url(#paint1_linear_151_6139)"/>
<path d="M77.9988 88.9255C58.2235 72.0253 75.5003 70 80.3707 79.1393C83.8039 85.5818 85.4142 93.2488 77.9988 88.9255Z" fill="url(#paint2_linear_151_6139)"/>
<path d="M196.303 86.8988C184.803 80.4681 195.026 72.8551 198.818 79.6803C201.491 84.4916 202.758 90.509 196.303 86.8988Z" fill="url(#paint3_linear_151_6139)"/>
<defs>
<linearGradient id="paint0_linear_151_6139" x1="138.417" y1="23.2985" x2="137.998" y2="209.935" gradientUnits="userSpaceOnUse">
<stop stop-color="#C447FF"/>
<stop offset="1" stop-color="#8256FD"/>
</linearGradient>
<linearGradient id="paint1_linear_151_6139" x1="115.455" y1="9" x2="115.404" y2="33.2355" gradientUnits="userSpaceOnUse">
<stop stop-color="#C447FF"/>
<stop offset="1" stop-color="#8256FD"/>
</linearGradient>
<linearGradient id="paint2_linear_151_6139" x1="75.9943" y1="73.7598" x2="75.9673" y2="90.1428" gradientUnits="userSpaceOnUse">
<stop stop-color="#C447FF"/>
<stop offset="1" stop-color="#8256FD"/>
</linearGradient>
<linearGradient id="paint3_linear_151_6139" x1="196" y1="77" x2="195.982" y2="87.9707" gradientUnits="userSpaceOnUse">
<stop stop-color="#C447FF"/>
<stop offset="1" stop-color="#8256FD"/>
</linearGradient>
</defs>
</svg>
