<svg width="280" height="210" viewBox="0 0 280 210" fill="none" xmlns="http://www.w3.org/2000/svg">
<path fill-rule="evenodd" clip-rule="evenodd" d="M163.764 72.5742C171.723 59.3103 186.606 44.3337 198.449 44.3338C244.483 44.3341 222.088 87.2576 200.938 59.5748C200.997 60.043 201.078 60.6336 201.173 61.3341C202.302 69.6234 205.526 93.2933 200.938 111.362L200.932 111.357C197.141 131.119 177.714 153.271 149.366 167.45C110.803 186.738 70.3341 183.965 58.9764 161.257C47.6187 138.55 69.6731 104.505 108.236 85.2173C127.569 75.5476 147.381 71.4224 163.764 72.5742Z" fill="#4B4B4B"/>
<path d="M114.586 4.13556C105.106 0.744978 109.385 23.8979 113.221 27.0251C115.883 29.1947 120.805 28.5786 121.678 26.1635C123.862 20.1193 119.939 6.04988 114.586 4.13556Z" fill="#4B4B4B"/>
<path d="M122.233 14.1274L153.427 105.773L123.016 98.7912C121.93 72.4485 121.76 46.8697 120.658 28.4665C111.155 18.8561 109.72 4.34491 113.411 3.42077C115.227 2.96606 118.285 5.80081 122.233 14.1274Z" fill="white"/>
<path d="M88.4917 95.7598C97.7073 99.2122 108.106 103.774 113.399 105.932L98.1432 129.976C94.0958 127.613 85.8181 119.983 74.6098 110.427L63.9045 123.46C65.1499 119.35 67.9182 114.327 70.434 107.165C72.9247 100.075 76.9721 91.4442 88.4917 95.7598Z" fill="white"/>
<path d="M98.0391 129.976C100.702 133.792 108.05 136.492 110.55 136.492C111.488 134.327 111.151 132.149 111.488 131.543C118.364 119.17 132.428 131.853 133.053 136.492C135.553 134.018 146.302 128.698 146.804 128.45L146.804 128.45C146.804 128.45 142.661 126.576 154.142 121.133C145.078 116.183 154.667 114.151 154.142 107.621C154.142 103.085 151.653 98.6596 149.704 94.6021C147.603 90.228 126.802 92.5683 123.052 98.7548V103.704C123.052 107.621 121.489 108.746 118.364 107.621C116.072 106.796 113.7 106.075 113.2 106.075C110.075 105.765 99.2892 119.15 98.0391 129.976Z" fill="#797979"/>
<path d="M156.614 123.448C151.523 124.204 145.466 108.94 154.386 108.977C163.219 109.015 176.084 110.001 179.8 109.085C178.391 105.813 173.252 99.7283 170.448 96.451C169.536 100.645 162.57 102.482 160.24 101.073C157.909 99.6634 162.95 100.227 164.414 98.7579C166.266 96.8999 163.165 95.9539 158.835 98.7344C157.323 99.7054 152.346 103.372 156.491 94.0599C157.436 91.937 163.912 89.893 170.886 89.9225C174.141 89.9362 180.216 97.4258 192.824 110.54C197.651 115.56 175.193 118.942 166.372 122.09C162.07 123.624 159.742 122.983 156.614 123.448Z" fill="white"/>
<path d="M155.132 125.787C158.39 123.786 158.39 114.616 155.132 108.565C150.37 99.7221 138.067 97.395 132.482 109.497C117.588 107.148 109.675 118.806 111.071 133.235C117.885 119.747 128.6 134.186 129.224 138.82C132.947 137.889 148.273 129.758 148.773 129.511C148.773 129.511 149.547 129.217 155.132 125.787Z" fill="#323232"/>
<path d="M111.537 130.907C122.21 120.535 132.527 137.469 125.204 144.317C116.503 151.775 104.556 162.558 98.9701 162.558L67.5559 166.281C72.44 171.867 69.3075 173.629 70.7031 179.424C71.1036 181.087 68.4513 180.939 67.5559 178.463C66.9033 176.658 66.0559 175.855 65.0009 176.237C61.7043 177.429 66.965 187.651 63.3802 186.272C57.2825 183.927 54.7528 168.229 65.0008 161.627C68.0461 159.665 83.2052 155.035 94.3156 152.783C98.0392 151.852 106.364 139.335 111.537 130.907Z" fill="white"/>
<path d="M198.872 32.1701C196.532 37.0146 194.964 40.8871 193.774 46.2983L200.448 46.4827C200.385 41.122 200.111 38.0174 198.872 32.1701Z" fill="#4B4B4B"/>
<path d="M185.543 63.4171C190.198 73.657 196.249 59.6935 193.921 44.7992C176.078 52.7118 162.579 70.8643 162.58 79.7078C162.58 90.4131 172.511 81.5696 173.442 71.3297C174.373 81.5696 184.612 73.1915 185.543 63.4171Z" fill="white"/>
<path d="M200.438 43.8683C207.109 41.386 220.917 39.6793 223.244 44.7993C226.536 52.04 209.746 49.9192 200.438 43.8683Z" fill="white"/>
<path d="M200.437 43.8685C202.507 46.8568 204.457 52.5666 210.212 52.712C215.967 52.8574 211.024 40.5227 200.437 43.8685Z" fill="white"/>
<ellipse cx="140.811" cy="127.371" rx="10.2969" ry="9.48528" transform="rotate(-22.4649 140.811 127.371)" fill="#989898"/>
<path d="M136.847 130.821C138.263 135.955 137.944 133.623 139.803 133.631C142.005 133.64 143.066 135.975 145.401 138.782C146.296 130.395 147.239 133.662 147.239 133.662C153.323 133.502 150.939 129.482 158.38 130.911C184.907 140.345 157.448 148.557 168.734 162.187C184.613 181.366 159.641 210.628 129.388 199.314C117.287 194.788 115.389 185.271 121.508 186.695C143.108 191.722 96.5142 153.959 136.847 130.821Z" fill="#202020"/>
<path d="M158.086 141.198C160.238 127.574 152.888 119.824 149.169 118.797C146.114 117.953 141.685 121.157 137.584 125.271C135.734 127.127 136.159 131.097 136.543 135.983C137.42 151.547 156.157 153.419 158.086 141.198Z" fill="white"/>
<path d="M135.267 134.175L132.567 154.076C136.367 155.332 151.028 158.459 156.234 156.489C163.331 153.804 161.279 142.618 158.94 137.978C158.012 137.974 158.351 144.021 154.313 140.737C151.934 142.724 148.227 144.214 145.039 141.625C139.884 137.436 142.681 132.353 135.267 134.175Z" fill="#202020"/>
<path d="M137.969 134.881C137.513 137.666 133.459 138.114 133.447 135.327C133.436 132.761 134.996 129.145 136.541 129.3C138.086 129.455 138.384 132.352 137.969 134.881Z" fill="white"/>
<path fill-rule="evenodd" clip-rule="evenodd" d="M238.234 152.158C256.431 147.425 269.173 135.752 266.693 126.084C264.214 116.417 247.452 112.416 229.255 117.149C211.059 121.881 198.317 133.555 200.797 143.222C201.055 144.231 201.469 145.178 202.025 146.06L232.608 133.843L217.257 153.759C223.392 154.581 230.69 154.12 238.234 152.158Z" fill="#4B4B4B"/>
<mask id="path-19-inside-1_475_17017" fill="white">
<path fill-rule="evenodd" clip-rule="evenodd" d="M256.099 155.615C268.902 152.286 277.866 144.073 276.122 137.271C274.377 130.469 262.584 127.655 249.782 130.984C236.979 134.314 228.015 142.527 229.759 149.328C229.949 150.066 230.256 150.757 230.67 151.399L249.586 144.587L241.13 156.713C245.489 157.33 250.705 157.018 256.099 155.615Z"/>
</mask>
<path d="M276.122 137.271L274.181 137.777L274.181 137.777L276.122 137.271ZM256.099 155.615L256.593 157.548L256.593 157.548L256.099 155.615ZM249.782 130.984L250.276 132.917L250.276 132.917L249.782 130.984ZM229.759 149.328L227.819 149.835L227.819 149.835L229.759 149.328ZM230.67 151.399L228.985 152.488L229.843 153.816L231.34 153.277L230.67 151.399ZM249.586 144.587L251.228 145.721L254.809 140.587L248.916 142.708L249.586 144.587ZM241.13 156.713L239.488 155.579L237.634 158.237L240.836 158.69L241.13 156.713ZM274.181 137.777C274.781 140.117 273.623 143.156 270.216 146.278C266.88 149.334 261.752 152.084 255.605 153.683L256.593 157.548C263.249 155.817 269.004 152.796 272.915 149.212C276.755 145.695 279.206 141.227 278.062 136.765L274.181 137.777ZM250.276 132.917C256.423 131.318 262.233 131.224 266.621 132.271C271.104 133.341 273.581 135.436 274.181 137.777L278.062 136.765C276.918 132.304 272.626 129.591 267.576 128.386C262.431 127.158 255.943 127.321 249.288 129.052L250.276 132.917ZM231.7 148.822C231.1 146.483 232.258 143.443 235.665 140.322C239.001 137.266 244.129 134.516 250.276 132.917L249.288 129.052C242.632 130.783 236.877 133.804 232.966 137.387C229.126 140.905 226.675 145.373 227.819 149.835L231.7 148.822ZM232.356 150.31C232.052 149.84 231.834 149.345 231.7 148.822L227.819 149.835C228.064 150.788 228.46 151.675 228.985 152.488L232.356 150.31ZM231.34 153.277L250.256 146.465L248.916 142.708L230 149.52L231.34 153.277ZM247.945 143.453L239.488 155.579L242.771 157.847L251.228 145.721L247.945 143.453ZM255.605 153.683C250.433 155.028 245.487 155.311 241.423 154.735L240.836 158.69C245.492 159.35 250.976 159.009 256.593 157.548L255.605 153.683Z" fill="white" mask="url(#path-19-inside-1_475_17017)"/>
<path fill-rule="evenodd" clip-rule="evenodd" d="M200.519 183.199C208.935 181.736 215.149 176.933 214.397 172.47C213.645 168.007 206.213 165.575 197.797 167.037C189.381 168.5 183.167 173.303 183.919 177.766C183.997 178.229 184.147 178.671 184.363 179.089L198.671 174.702L190.972 183.144C193.716 183.742 197.033 183.804 200.519 183.199Z" fill="#797979"/>
<path fill-rule="evenodd" clip-rule="evenodd" d="M33.2024 95.4476C43.5864 93.6433 51.2523 87.7169 50.3249 82.2107C49.3974 76.7045 40.2277 73.7035 29.8438 75.5078C19.4599 77.3121 11.7939 83.2385 12.7214 88.7447C12.8177 89.3166 13.0029 89.8615 13.2692 90.3767L30.9222 84.9641L21.4236 95.3799C24.8086 96.1179 28.9014 96.195 33.2024 95.4476Z" fill="#4B4B4B"/>
<mask id="path-23-inside-2_475_17017" fill="white">
<path fill-rule="evenodd" clip-rule="evenodd" d="M78.5676 68.7614C84.4257 67.7436 88.7504 64.4002 88.2272 61.2939C87.7039 58.1876 82.5309 56.4946 76.6729 57.5125C70.8149 58.5304 66.4902 61.8738 67.0134 64.9801C67.0728 65.3329 67.1922 65.6675 67.3658 65.9819L74.0883 65.1145L71.6041 68.6494C73.5728 69.1332 76.0047 69.2068 78.5676 68.7614Z"/>
</mask>
<path d="M88.2272 61.2939L90.2045 60.9495L90.2045 60.9495L88.2272 61.2939ZM78.5676 68.7614L78.8978 70.7267L78.8978 70.7267L78.5676 68.7614ZM67.0134 64.9801L68.9908 64.6356L68.9908 64.6356L67.0134 64.9801ZM67.3658 65.9819L65.6069 66.9528L66.2593 68.1345L67.6086 67.9604L67.3658 65.9819ZM74.0883 65.1145L75.7284 66.2494L78.3223 62.5583L73.8455 63.136L74.0883 65.1145ZM71.6041 68.6494L69.964 67.5145L68.2917 69.8941L71.1094 70.5865L71.6041 68.6494ZM86.2498 61.6384C86.3297 62.1127 86.0839 63.0669 84.568 64.2388C83.1291 65.3512 80.9075 66.3322 78.2375 66.7962L78.8978 70.7267C82.0858 70.1728 84.9556 68.9732 87.0128 67.3828C88.9929 65.8521 90.6479 63.5815 90.2045 60.9495L86.2498 61.6384ZM77.0031 59.4778C79.673 59.0139 82.0896 59.189 83.8111 59.7524C85.6249 60.346 86.1698 61.1635 86.2498 61.6384L90.2045 60.9495C89.7613 58.3181 87.4581 56.7359 85.0901 55.961C82.6297 55.1557 79.5308 54.9933 76.3427 55.5472L77.0031 59.4778ZM68.9908 64.6356C68.9109 64.1613 69.1566 63.2071 70.6726 62.0351C72.1114 60.9228 74.3331 59.9418 77.0031 59.4778L76.3427 55.5472C73.1547 56.1012 70.285 57.3008 68.2278 58.8911C66.2477 60.4219 64.5927 62.6925 65.036 65.3245L68.9908 64.6356ZM69.1247 65.0111C69.0537 64.8824 69.0115 64.7587 68.9908 64.6356L65.036 65.3245C65.1341 65.9071 65.3307 66.4525 65.6069 66.9528L69.1247 65.0111ZM67.6086 67.9604L74.3311 67.093L73.8455 63.136L67.123 64.0034L67.6086 67.9604ZM72.4482 63.9795L69.964 67.5145L73.2442 69.7843L75.7284 66.2494L72.4482 63.9795ZM78.2375 66.7962C75.9086 67.2008 73.761 67.1208 72.0988 66.7123L71.1094 70.5865C73.3846 71.1457 76.1007 71.2128 78.8978 70.7267L78.2375 66.7962Z" fill="white" mask="url(#path-23-inside-2_475_17017)"/>
<mask id="path-25-inside-3_475_17017" fill="white">
<path fill-rule="evenodd" clip-rule="evenodd" d="M93.5041 209.11C100.272 207.934 105.268 204.072 104.664 200.483C104.059 196.894 98.0828 194.939 91.3151 196.115C84.5475 197.29 79.5512 201.153 80.1557 204.742C80.2235 205.144 80.359 205.527 80.5557 205.886L89.3816 203.841L85.5926 209.013C87.843 209.543 90.6007 209.615 93.5041 209.11Z"/>
</mask>
<path d="M104.664 200.483L102.686 200.828L102.686 200.828L104.664 200.483ZM93.5041 209.11L93.8343 211.075L93.8343 211.075L93.5041 209.11ZM91.3151 196.115L91.6453 198.08L91.6453 198.08L91.3151 196.115ZM80.1557 204.742L82.133 204.397L82.133 204.397L80.1557 204.742ZM80.5557 205.886L78.7931 206.85L79.5162 208.172L80.9962 207.829L80.5557 205.886ZM89.3816 203.841L90.9986 205.008L94.1636 200.687L88.9411 201.898L89.3816 203.841ZM85.5926 209.013L83.9756 207.846L82.2011 210.268L85.1168 210.954L85.5926 209.013ZM102.686 200.828C102.807 201.543 102.413 202.748 100.626 204.129C98.9157 205.452 96.2987 206.602 93.1739 207.145L93.8343 211.075C97.4771 210.442 100.742 209.074 103.071 207.273C105.322 205.533 107.125 203.012 106.641 200.139L102.686 200.828ZM91.6453 198.08C94.7701 197.537 97.6149 197.738 99.661 198.408C101.8 199.108 102.566 200.111 102.686 200.828L106.641 200.139C106.157 197.266 103.633 195.498 100.94 194.616C98.155 193.705 94.6278 193.516 90.9849 194.149L91.6453 198.08ZM82.133 204.397C82.0125 203.682 82.4059 202.477 84.1932 201.095C85.9035 199.773 88.5205 198.623 91.6453 198.08L90.9849 194.149C87.3421 194.782 84.0771 196.151 81.7484 197.951C79.4969 199.692 77.6943 202.213 78.1783 205.086L82.133 204.397ZM82.3182 204.922C82.2224 204.747 82.1626 204.573 82.133 204.397L78.1783 205.086C78.2844 205.716 78.4956 206.306 78.7931 206.85L82.3182 204.922ZM80.9962 207.829L89.8221 205.784L88.9411 201.898L80.1151 203.943L80.9962 207.829ZM87.7647 202.673L83.9756 207.846L87.2095 210.18L90.9986 205.008L87.7647 202.673ZM93.1739 207.145C90.501 207.609 88.0204 207.531 86.0684 207.071L85.1168 210.954C87.6656 211.555 90.7005 211.62 93.8343 211.075L93.1739 207.145Z" fill="white" mask="url(#path-25-inside-3_475_17017)"/>
<ellipse cx="26.3474" cy="133.33" rx="18.2605" ry="12.3115" transform="rotate(-26.5726 26.3474 133.33)" fill="white"/>
<ellipse cx="26.3474" cy="133.33" rx="18.2605" ry="12.3115" transform="rotate(-26.5726 26.3474 133.33)" fill="white"/>
<path d="M27.1342 129.511C29.9268 134.631 28.4901 143.028 23.876 145.336C19.262 147.644 13.6362 147.198 9.91237 141.612C6.4989 136.492 8.32871 127.154 12.9428 124.846C17.5568 122.538 24.6937 124.632 27.1342 129.511Z" fill="#989898"/>
<path d="M43.6063 118.299C44.5543 123.014 43.8904 129.511 42.9595 132.769L33.3665 122.953L38.9518 117.834C41.7445 115.041 42.9595 115.082 43.6063 118.299Z" fill="white"/>
<ellipse cx="15.0732" cy="127.737" rx="10.121" ry="7.54385" transform="rotate(-26.5726 15.0732 127.737)" fill="white"/>
<path d="M2.18136 137.383L6.37015 131.332C8.69733 129.004 11.9629 132.985 13.3519 134.59L7.30123 139.244C4.0431 141.572 1.25071 139.244 2.18136 137.383Z" fill="#4B4B4B"/>
<ellipse cx="16.531" cy="130.905" rx="2.32724" ry="1.39634" transform="rotate(-29.7128 16.531 130.905)" fill="#202020"/>
</svg>
