<svg width="300" height="320" viewBox="0 0 300 320" fill="none" xmlns="http://www.w3.org/2000/svg">
<ellipse rx="24.6578" ry="13.6614" transform="matrix(0.999712 -0.023985 0.0207405 0.999785 151.934 17.7114)" fill="#797979"/>
<ellipse rx="48.597" ry="20.4769" transform="matrix(0.999712 -0.023985 0.0207405 0.999785 152.007 29.36)" fill="#202020"/>
<path fill-rule="evenodd" clip-rule="evenodd" d="M107.862 22.9801C105.639 25.2955 104.535 27.7049 104.585 30.113C104.653 33.418 106.908 36.6379 111.19 39.4668C111.65 39.7708 111.776 40.3911 111.47 40.8522C111.165 41.3134 110.544 41.4408 110.084 41.1368C105.562 38.1494 102.674 34.4184 102.585 30.161C102.521 27.0645 103.955 24.1665 106.421 21.5974C108.884 19.0321 112.425 16.7362 116.74 14.7974C125.375 10.9178 137.292 8.38445 150.455 8.06865C159.777 7.84499 168.514 8.76253 175.933 10.5421C176.47 10.6708 176.799 11.2106 176.669 11.7477C176.539 12.2848 175.998 12.6159 175.461 12.4872C168.227 10.7521 159.665 9.84825 150.497 10.0682C137.534 10.3792 125.892 12.8756 117.555 16.6214C113.385 18.4952 110.088 20.6608 107.862 22.9801Z" fill="white"/>
<ellipse rx="21.177" ry="10.888" transform="matrix(0.999712 -0.023985 0.0207405 0.999785 151.397 31.5363)" fill="#4B4B4B"/>
<path fill-rule="evenodd" clip-rule="evenodd" d="M137.144 25.0762C133.468 27.0754 131.576 29.5822 131.627 32.0201C131.669 34.0494 133.046 36.0572 135.708 37.7418C136.174 38.0367 136.312 38.6543 136.015 39.1213C135.719 39.5883 135.101 39.7278 134.635 39.4329C131.695 37.572 129.689 35.0462 129.627 32.0681C129.553 28.494 132.287 25.4443 136.192 23.3198C140.149 21.1673 145.58 19.794 151.551 19.6507C155.701 19.5512 159.605 20.0574 162.953 21.0282C163.483 21.1818 163.786 21.7365 163.631 22.267C163.476 22.7975 162.92 23.103 162.39 22.9493C159.255 22.0403 155.556 21.5552 151.593 21.6503C145.872 21.7876 140.767 23.105 137.144 25.0762Z" fill="white"/>
<path fill-rule="evenodd" clip-rule="evenodd" d="M150.196 32.965C150.535 31.3073 152.505 30.716 153.819 33.0909C164.67 89.2857 165.336 85.1768 166.608 77.3311C167.857 69.6272 169.691 58.3203 182.324 96.9646C194.033 132.778 195.306 125.058 196.742 116.346C198.434 106.084 200.354 94.445 219.824 150.965C242.003 215.344 242.168 201.727 242.299 190.901C242.381 184.154 242.45 178.492 247.825 193.465C261.825 232.465 274.172 267.965 274.172 267.965C287.758 297.402 205.812 318.465 153.819 318.465C101.825 318.465 30.7018 301.881 41.1717 267.965C50.1498 238.881 63.8546 196.999 72.8243 174.465C81.9058 151.65 82.6207 163.376 83.2628 173.91C84.0701 187.154 84.7626 198.512 101.825 136.965C115.694 86.9332 119.157 98.8127 122.308 109.625C126.117 122.693 129.472 134.202 150.196 32.965ZM192.195 255.189C185.375 222.528 198.05 206.328 204.097 228.084C210.145 249.84 199.016 287.85 192.195 255.189ZM102.827 176.046C102.74 153.287 113.427 144.196 114.491 159.562C115.554 174.929 102.914 198.805 102.827 176.046ZM179.181 105.835C179.248 88.1968 170.966 81.1516 170.142 93.0604C169.318 104.969 179.114 123.473 179.181 105.835ZM163.538 115.693C163.665 82.3279 147.997 69.0007 146.438 91.5281C144.88 114.055 163.41 149.059 163.538 115.693ZM55.9083 255.334C55.7629 217.208 73.6656 201.98 75.4468 227.721C77.2279 253.462 56.0537 293.459 55.9083 255.334ZM273.968 209.052C274.023 194.482 267.182 188.663 266.501 198.5C265.82 208.337 273.912 223.622 273.968 209.052ZM129.434 69.1468C129.862 58.975 134.823 55.1316 134.984 62.0199C135.144 68.9082 129.007 79.3187 129.434 69.1468ZM47.8106 163.052C47.755 148.482 54.5967 142.663 55.2773 152.5C55.958 162.337 47.8661 177.622 47.8106 163.052ZM19.9667 268.825C16.1018 254.777 21.1829 247.37 24.4131 256.687C27.6434 266.003 23.8317 282.873 19.9667 268.825ZM184.492 71.2527C184.536 59.6081 179.068 54.9569 178.524 62.819C177.98 70.6811 184.447 82.8973 184.492 71.2527Z" fill="#323232"/>
<path d="M255.23 268.582C293.294 274.249 252.413 303.829 207.328 277.256L210.693 254.655C221.221 238.389 241.848 230.517 236.036 245.054C294.212 205.485 317.717 257.216 255.23 268.582Z" fill="#202020"/>
<path fill-rule="evenodd" clip-rule="evenodd" d="M236.016 267.377C236.113 266.833 236.632 266.47 237.176 266.567C242.876 267.58 246.628 269.553 248.206 271.9C249.023 273.117 249.27 274.47 248.805 275.765C248.352 277.023 247.289 278.053 245.839 278.813C242.951 280.326 238.178 280.962 231.8 280.073C225.391 279.181 217.257 276.735 207.558 271.948C207.063 271.704 206.859 271.104 207.104 270.609C207.348 270.114 207.948 269.911 208.443 270.155C217.994 274.868 225.922 277.235 232.076 278.092C238.261 278.954 242.55 278.278 244.911 277.041C246.087 276.425 246.695 275.721 246.923 275.088C247.137 274.492 247.072 273.799 246.545 273.016C245.435 271.363 242.375 269.523 236.825 268.536C236.282 268.44 235.919 267.92 236.016 267.377Z" fill="white"/>
<path d="M226.47 252.139C249.18 246.604 239.808 268.716 208.627 268.532L210.753 254.257C221.643 243.72 231.203 247.575 226.47 252.139Z" fill="#404040"/>
<path d="M206.948 281.577L212.025 247.477C193.01 234.672 178.052 249.714 154.624 251.9L153.266 261.02C175.041 269.936 187.291 288.378 206.948 281.577Z" fill="#797979"/>
<path fill-rule="evenodd" clip-rule="evenodd" d="M176.781 255.539C171.111 256.139 165.564 256.726 158.843 255.726C158.296 255.644 157.919 255.136 158.001 254.589C158.082 254.043 158.591 253.666 159.137 253.747C165.586 254.708 170.845 254.153 176.494 253.556C177.778 253.421 179.081 253.283 180.423 253.161C187.668 252.5 195.829 252.319 207.527 255.455C208.061 255.598 208.377 256.146 208.234 256.679C208.091 257.213 207.543 257.529 207.009 257.387C195.601 254.329 187.689 254.507 180.605 255.153C179.314 255.27 178.045 255.405 176.781 255.539Z" fill="#202020"/>
<path fill-rule="evenodd" clip-rule="evenodd" d="M175.507 264.098C170.258 261.872 165.123 259.694 158.401 258.693C157.855 258.612 157.346 258.988 157.265 259.535C157.183 260.081 157.56 260.59 158.106 260.671C164.555 261.631 169.424 263.694 174.655 265.911C175.843 266.414 177.05 266.925 178.298 267.433C185.036 270.176 192.79 272.727 204.895 273.135C205.447 273.154 205.909 272.722 205.928 272.17C205.947 271.618 205.514 271.155 204.962 271.137C193.158 270.738 185.641 268.263 179.052 265.581C177.852 265.092 176.677 264.594 175.507 264.098Z" fill="#202020"/>
<path d="M132.468 199.733C131.477 201.123 128.058 203.061 126.252 202.811C124.897 201.878 126.085 198.495 127.561 196.353C129.037 194.21 131.332 193.23 132.687 194.164C134.042 195.098 133.944 197.591 132.468 199.733Z" fill="white"/>
<path d="M234.525 192.517C227.933 183.123 223.794 178.431 213.724 173.587L214.47 202.277L223.342 207.634C235.977 214.994 240.064 214.455 244.105 205.079L258.592 158.034C259.987 173.586 268.023 175.515 274.433 174.06L264.072 151.578C259.134 141.016 256.769 140.892 252.775 150.16C246.367 165.034 230.771 172.498 234.525 192.517Z" fill="white"/>
<path d="M205.311 133.975L200.825 138.219L215.549 150.74C220.236 144.267 226.223 140.062 226.347 131.845L228.936 83.5486C245.113 75.0775 253.142 69.6582 250.544 61.5906C247.321 62.904 228.767 70.5279 224.619 72.4238C220.092 74.4931 216.792 75.6137 219.008 85.4471C211.335 113.122 204.124 124.283 205.311 133.975Z" fill="white"/>
<path d="M196.904 135.479C185.584 144.836 170.434 150.62 170.046 171.997C167.678 176.712 166.207 179.116 162.172 181.043L181.172 202.272C187.672 197.965 194.413 189.037 200.25 192.706L214.5 202.272L226.756 181.043C219.199 170.092 213.961 166.223 206.017 162.104L217.06 149.403C210.174 141.044 205.494 136.98 196.904 135.479Z" fill="#797979"/>
<path fill-rule="evenodd" clip-rule="evenodd" d="M196.895 160.319C194.017 159.87 191.596 160.131 189.809 161.027C189.315 161.275 188.714 161.075 188.467 160.582C188.219 160.088 188.419 159.487 188.912 159.24C191.195 158.095 194.075 157.855 197.203 158.343C200.342 158.832 203.805 160.063 207.327 161.958C214.372 165.747 221.748 172.242 227.344 181.014C227.641 181.479 227.504 182.098 227.038 182.395C226.573 182.692 225.954 182.555 225.657 182.089C220.242 173.6 213.118 167.344 206.38 163.719C203.011 161.907 199.763 160.766 196.895 160.319Z" fill="white"/>
<path d="M239.708 80.1338C251.665 76.4955 254.582 72.5475 251.208 61.1338L235.708 62.6338L239.708 80.1338Z" fill="#797979"/>
<path fill-rule="evenodd" clip-rule="evenodd" d="M252.695 60.4694C252.785 61.0142 252.417 61.5294 251.873 61.6202L218.873 67.1202C218.328 67.211 217.813 66.843 217.722 66.2982C217.631 65.7534 217.999 65.2382 218.544 65.1474L251.544 59.6474C252.089 59.5566 252.604 59.9246 252.695 60.4694Z" fill="white"/>
<path d="M108.924 246.131L120.203 237.938L134.599 253.679L123.45 260.673C115.812 264.912 92.8504 259.642 73.9555 254.156L61.67 251.498C38.2999 245.194 38.6041 242.689 50.7556 244.16C31.8034 235.994 33.7944 234.969 49.8363 239.999C31.5377 232.115 34.4878 230.206 50.1724 236.964C40.1423 227.873 38.6366 224.631 54.5867 235.269L65.2731 243.136L108.924 246.131Z" fill="white"/>
<path d="M91.422 223.644L102.091 225.456L106.922 209.531L92.8429 209.718L65.6722 192.73L59.065 187.644C53.5653 180.792 48.0652 176.292 55.5652 187.644C46.4734 178.681 42.0652 178.793 47.0652 183.793L47.0652 183.793C48.3597 185.087 49.5652 186.293 50.7363 187.645C39.7323 181.26 38.0648 182.957 43.0651 186.292C44.5652 187.293 46.565 188.792 48.565 190.293C34.5651 184.793 39.276 188.62 42.0652 190.293C44.5652 191.792 47.2897 193.303 49.5652 194.293L53.5653 196.293C44.5653 195.293 44.5653 198.793 49.0653 198.793C53.5653 198.793 57.0652 201.792 64.5653 200.793C75.6201 213.118 82.2187 221.975 91.422 223.644Z" fill="white"/>
<path fill-rule="evenodd" clip-rule="evenodd" d="M130.968 256.112C145.023 248.085 164.391 235.077 168.789 227.864L189.172 197.465C187.553 186.122 183.653 177.765 176.911 169.838L173.801 177.056C173.052 175.367 172.316 173.666 171.581 171.965C167.185 161.797 162.803 151.659 155.672 144.465L144.172 190.464L136.026 202.611L106.274 209.466L101.983 226.508L123.948 230.18C131.843 223.918 138.329 220.059 147.637 219.032C148.186 218.972 148.68 219.368 148.74 219.917C148.801 220.466 148.405 220.96 147.856 221.02C138.361 222.068 132.007 226.175 123.268 233.298L116.051 240.085L130.968 256.112Z" fill="#202020"/>
<path d="M138.116 207.755L134.135 207.633L125.388 223.222L131.431 221.764C139.431 220.474 139.964 209.706 138.116 207.755Z" fill="#BFBFBF"/>
<path d="M121.665 224.963C116.188 223.586 107.686 210.315 110.365 200.502C114.756 184.415 132.794 187.802 135.87 201.682C138.5 213.552 126.02 226.057 121.665 224.963Z" fill="white"/>
<path d="M108.754 171.302C104.392 188.158 100.577 198.305 110.195 204.928C110.881 197.875 110.952 207.984 122.342 201.926C129.974 197.866 128.694 210.851 128.694 210.851L130.439 210.442C131.927 203.348 134.541 202.942 135 211.551C146.784 206.96 141.666 188.595 133.702 182.842L131.313 188.388C127.376 182.05 126.691 178.438 120.918 173.63C118.883 177.624 118.01 180.855 117.065 183.47C114.935 181.842 116.146 180.448 108.754 171.302Z" fill="#4B4B4B"/>
<path d="M137.926 101.271C140.787 101.686 143.511 105.47 138.936 106.746C141.803 108.022 142.681 111.194 137.281 112.164C139.432 114.942 134.882 117.426 130.22 117.334C131.585 120.565 127.543 122.088 124.081 119.365C120.497 128.492 116.097 120.428 115.404 115.535C114.882 111.854 115.563 109.01 118.584 104.977C119.096 98.2893 124.69 93.6849 124.725 100.011C128.333 94.6809 134.324 94.6704 131.879 98.6401C138.756 95.5477 141.526 100.624 137.926 101.271Z" fill="#202020"/>
<path fill-rule="evenodd" clip-rule="evenodd" d="M119.387 101.36C118.842 100.803 118.296 100.322 117.785 99.9585C123.229 99.3549 119.179 92.3205 109.623 91.166C114.018 88.3948 109.452 84.1803 98.7593 86.5128C100.417 82.7733 90.8454 82.9125 85.3235 90.0849C80.1836 87.4338 67.1562 95.0309 73.9844 98.5142C68.0834 103.578 64.5206 110.144 70.5884 110.075C65.8848 118.427 68.7423 123.179 74.5484 120.903C73.0621 129.735 77.8029 132.927 81.9991 128.324C82.9589 134.285 86.5372 137.693 90.4812 132.569C91.8343 138.015 96.3451 139.368 99.2482 134.748C104.356 139.985 108.498 136.051 106.606 132.145C112.701 134.515 117.4 131.096 113.959 126.646C118.218 127.776 120.211 125.84 120.146 123.495C121.425 123.686 122.805 122.616 124.081 119.366C127.543 122.089 131.585 120.565 130.22 117.334C134.882 117.426 139.432 114.943 137.281 112.164C142.681 111.194 141.803 108.023 138.936 106.746C143.511 105.471 140.787 101.686 137.926 101.271C141.526 100.625 138.756 95.5481 131.879 98.6405C134.324 94.6709 128.333 94.6813 124.725 100.012C124.697 94.9219 121.07 96.9073 119.387 101.36Z" fill="#202020"/>
<path fill-rule="evenodd" clip-rule="evenodd" d="M89.3094 114.025C89.2151 113.481 89.5797 112.963 90.1239 112.869L98.4448 111.426L95.3293 103.577C95.1256 103.063 95.3765 102.482 95.8899 102.278C96.4032 102.075 96.9845 102.326 97.1883 102.839L100.758 111.832C100.781 111.891 100.799 111.952 100.811 112.015L102.997 123.539L116.53 120.972C116.772 120.926 117.024 120.971 117.235 121.099C117.792 121.437 118.563 122.034 119.405 122.72C120.069 123.259 120.811 123.882 121.575 124.523C121.796 124.709 122.019 124.896 122.243 125.083C123.232 125.911 124.223 126.731 125.13 127.443L118.847 109.549C118.733 109.223 118.795 108.861 119.011 108.592L123.773 102.652C124.118 102.221 124.748 102.152 125.179 102.497C125.609 102.843 125.679 103.472 125.333 103.903L120.918 109.41L127.936 129.398C130.121 130.669 132.298 131.909 134.09 132.882C135.031 133.392 135.858 133.825 136.522 134.149C137.211 134.486 137.655 134.67 137.86 134.726C138.393 134.871 138.708 135.421 138.563 135.953C138.418 136.486 137.868 136.801 137.335 136.656C136.922 136.543 136.319 136.276 135.644 135.946C134.944 135.604 134.088 135.156 133.136 134.64C131.231 133.605 128.909 132.28 126.611 130.94C125.121 130.072 122.938 128.273 120.959 126.616C120.731 126.425 120.505 126.236 120.282 126.049C119.52 125.409 118.794 124.8 118.143 124.271C117.475 123.728 116.92 123.296 116.507 123.012L102.387 125.69C102.335 125.7 102.281 125.706 102.227 125.708L91.4192 125.993C91.2095 125.998 91.0034 125.938 90.83 125.82L86.7731 123.057C86.3166 122.746 86.1985 122.124 86.5094 121.668C86.8202 121.211 87.4423 121.093 87.8988 121.404L91.689 123.985L100.999 123.739L99.0293 113.355L90.4656 114.839C89.9214 114.934 89.4038 114.569 89.3094 114.025Z" fill="white"/>
<path fill-rule="evenodd" clip-rule="evenodd" d="M113.816 109.481C114.049 112.907 112.26 115.989 107.254 112.103C108.44 118.353 101.149 121.442 97.9468 113.869C98.0929 120.844 90.7326 121.381 89.7728 115.42C85.5766 120.023 82.2922 119.568 83.7784 110.736C77.9724 113.012 74.9732 107.571 80.6051 100.028C73.4344 102.566 75.5793 92.1515 83.8865 89.3982C76.9605 90.1235 77.3717 82.9821 87.0307 81.1495C91.3109 72.6849 104.146 70.4728 101.127 77.887C111.593 71.6294 116.214 76.2559 111.593 82.3596C119.942 78.9819 121.988 82.1697 119.719 85.7515C120.723 86.0655 121.422 87.045 121.432 88.863C124.386 82.0382 130.169 82.0382 128.586 87.4919C133.988 81.4599 137.109 86.0864 134.633 90.1228C138.844 87.4919 141.158 93.0262 135.644 95.5974C140.579 95.5974 139.388 100.045 133.988 101.015C138.844 103.436 133.061 106.186 126.927 106.186C131.326 109.797 124.386 112.689 120.789 108.217C118.373 114.366 115.588 112.712 113.816 109.481Z" fill="#404040"/>
<path fill-rule="evenodd" clip-rule="evenodd" d="M102.381 90.4552C102.843 90.7584 102.971 91.3784 102.668 91.84L98.9637 97.48L99.6423 101.06C99.7451 101.602 99.3886 102.126 98.846 102.229C98.3034 102.331 97.7801 101.975 97.6773 101.432L96.9234 97.4552C96.8751 97.2004 96.9277 96.9368 97.0701 96.72L100.996 90.742C101.3 90.2804 101.92 90.152 102.381 90.4552Z" fill="white"/>
<path d="M124.569 142.119C124.202 141.462 124.224 140.654 124.632 140.023L134.783 124.282C135.23 123.588 136.058 123.24 136.873 123.375C140.691 124.01 144.667 124.479 147.013 131.83C147.359 132.914 147.134 134.091 146.495 135.033L139.028 146.037C138.375 146.999 137.335 147.644 136.175 147.717C128.174 148.22 126.25 145.129 124.569 142.119Z" fill="#797979"/>
<path d="M8.78977 206.542C7.31867 205.455 7.15354 203.317 8.44041 202.017L18.1796 192.184C19.3455 191.006 21.245 190.997 22.4222 192.163L39.7239 209.299C40.9316 210.495 40.9053 212.454 39.666 213.618L32.1127 220.707C31.0565 221.699 29.4427 221.794 28.2774 220.933L8.78977 206.542Z" fill="#202020"/>
<path fill-rule="evenodd" clip-rule="evenodd" d="M31 214.052C32.1046 214.052 33 213.156 33 212.052C33 210.947 32.1046 210.052 31 210.052C29.8954 210.052 29 210.947 29 212.052C29 213.156 29.8954 214.052 31 214.052ZM31 216.052C33.2091 216.052 35 214.261 35 212.052C35 209.843 33.2091 208.052 31 208.052C28.7909 208.052 27 209.843 27 212.052C27 214.261 28.7909 216.052 31 216.052Z" fill="white"/>
<path d="M109.365 288.307C108.464 287.376 108.672 285.848 109.789 285.191L127.946 274.522C129.022 273.89 130.408 274.387 130.837 275.558L138.96 297.718C139.299 298.642 138.914 299.676 138.053 300.154L128.198 305.627C127.407 306.067 126.42 305.92 125.791 305.27L109.365 288.307Z" fill="#202020"/>
<path fill-rule="evenodd" clip-rule="evenodd" d="M142.249 282.207C140.247 278.799 135.86 277.662 132.454 279.668L129.776 281.245C129.3 281.525 128.687 281.366 128.406 280.89C128.126 280.414 128.285 279.801 128.761 279.521L131.439 277.944C135.797 275.378 141.411 276.833 143.974 281.194C146.534 285.552 145.077 291.161 140.719 293.722L136.54 296.178C136.063 296.457 135.451 296.298 135.171 295.822C134.891 295.346 135.05 294.733 135.526 294.453L139.706 291.997C143.112 289.996 144.25 285.613 142.249 282.207Z" fill="white"/>
</svg>
