<svg viewBox="0 0 129 40" fill="none" xmlns="http://www.w3.org/2000/svg">
<path fill-rule="evenodd" clip-rule="evenodd" d="M28.1006 10.3642C30.1407 11.8942 30.5541 14.7883 29.0241 16.8284L18.4315 30.9518C16.9015 32.9919 14.0073 33.4053 11.9673 31.8753C10.7596 30.9695 10.122 29.5857 10.1201 28.184L10.1043 28.1844C10.1043 24.5764 9.31226 23.3444 5.96826 23.5204C5.96826 23.5194 5.96827 23.5184 5.96828 23.5174C5.9098 23.5195 5.85104 23.5206 5.79204 23.5206C3.16758 23.5206 1.04004 21.3931 1.04004 18.7686C1.04004 16.1441 3.16758 14.0166 5.79204 14.0166C8.41632 14.0166 10.5437 16.1439 10.544 18.7681C10.5441 18.7682 10.5442 18.7683 10.5443 18.7684C10.5443 25.8666 10.95 25.3371 17.9174 16.2448C17.9357 16.2209 17.9541 16.1969 17.9725 16.1729L21.6364 11.2876C23.1665 9.24757 26.0606 8.83412 28.1006 10.3642Z" fill="white"/>
<path d="M47.8804 15.9585H43V12.9698H56.2903V15.9585H51.41V28.8189H47.8804V15.9585Z" fill="white"/>
<path d="M62.0819 16.4566C63.8975 16.4566 65.2919 16.9094 66.2651 17.8151C67.2383 18.7057 67.7248 20.0566 67.7248 21.8679V28.8189H64.5439V27.3019C63.9048 28.434 62.7137 29 60.9707 29C60.0702 29 59.2858 28.8415 58.6177 28.5245C57.9641 28.2075 57.463 27.7698 57.1144 27.2113C56.7658 26.6528 56.5915 26.0189 56.5915 25.3094C56.5915 24.1774 56.9982 23.2868 57.8116 22.6377C58.6395 21.9887 59.9104 21.6642 61.6244 21.6642H64.326C64.326 20.8943 64.1009 20.3057 63.6506 19.8981C63.2003 19.4755 62.5249 19.2642 61.6244 19.2642C60.9998 19.2642 60.3825 19.3698 59.7724 19.5811C59.1769 19.7774 58.6685 20.0491 58.2473 20.3962L57.0272 17.9283C57.6663 17.4604 58.4289 17.0981 59.3149 16.8415C60.2154 16.5849 61.1378 16.4566 62.0819 16.4566ZM61.8204 26.6226C62.4014 26.6226 62.9171 26.4868 63.3673 26.2151C63.8176 25.9283 64.1372 25.5132 64.326 24.9698V23.7245H61.9947C60.6003 23.7245 59.9031 24.2 59.9031 25.1509C59.9031 25.6038 60.0702 25.966 60.4043 26.2377C60.7529 26.4943 61.2249 26.6226 61.8204 26.6226Z" fill="white"/>
<path d="M74.7445 29C73.7713 29 72.8199 28.8792 71.8903 28.6377C70.9607 28.3811 70.22 28.0642 69.668 27.6868L70.801 25.1509C71.3239 25.4981 71.9557 25.7849 72.6965 26.0113C73.4372 26.2226 74.1635 26.3283 74.8752 26.3283C76.3132 26.3283 77.0322 25.9585 77.0322 25.2189C77.0322 24.8717 76.8361 24.6226 76.4439 24.4717C76.0517 24.3208 75.4489 24.1925 74.6355 24.0868C73.6769 23.9358 72.8853 23.7623 72.2607 23.566C71.6361 23.3698 71.0915 23.0226 70.6267 22.5245C70.1764 22.0264 69.9512 21.317 69.9512 20.3962C69.9512 19.6264 70.1619 18.9472 70.5831 18.3585C71.0188 17.7547 71.6434 17.2868 72.4568 16.9547C73.2847 16.6226 74.2579 16.4566 75.3763 16.4566C76.2042 16.4566 77.0249 16.5547 77.8383 16.7509C78.6662 16.9321 79.3489 17.1887 79.8863 17.5208L78.7534 20.034C77.7221 19.4302 76.5964 19.1283 75.3763 19.1283C74.6501 19.1283 74.1054 19.234 73.7423 19.4453C73.3791 19.6566 73.1976 19.9283 73.1976 20.2604C73.1976 20.6377 73.3937 20.9019 73.7858 21.0528C74.178 21.2038 74.8026 21.3472 75.6596 21.483C76.6182 21.6491 77.4026 21.8302 78.0126 22.0264C78.6226 22.2075 79.1528 22.5472 79.6031 23.0453C80.0534 23.5434 80.2785 24.2377 80.2785 25.1283C80.2785 25.883 80.0606 26.5547 79.6249 27.1434C79.1891 27.7321 78.55 28.1925 77.7076 28.5245C76.8797 28.8415 75.892 29 74.7445 29Z" fill="white"/>
<path d="M87.4084 24.0415L85.7744 25.717V28.8189H82.3755V12.0189H85.7744V21.5283L90.7419 16.6377H94.7944L89.914 21.8L95.2301 28.8189H91.1123L87.4084 24.0415Z" fill="white"/>
<path d="M96.7587 12.0189H100.158V28.8189H96.7587V12.0189Z" fill="white"/>
<path d="M103.312 16.6377H106.711V28.8189H103.312V16.6377ZM105.011 14.9396C104.387 14.9396 103.878 14.7509 103.486 14.3736C103.094 13.9962 102.898 13.5283 102.898 12.9698C102.898 12.4113 103.094 11.9434 103.486 11.566C103.878 11.1887 104.387 11 105.011 11C105.636 11 106.144 11.1811 106.536 11.5434C106.929 11.9057 107.125 12.3585 107.125 12.9019C107.125 13.4906 106.929 13.9811 106.536 14.3736C106.144 14.7509 105.636 14.9396 105.011 14.9396Z" fill="white"/>
<path d="M113.809 29C112.836 29 111.884 28.8792 110.955 28.6377C110.025 28.3811 109.284 28.0642 108.732 27.6868L109.865 25.1509C110.388 25.4981 111.02 25.7849 111.761 26.0113C112.501 26.2226 113.228 26.3283 113.939 26.3283C115.377 26.3283 116.096 25.9585 116.096 25.2189C116.096 24.8717 115.9 24.6226 115.508 24.4717C115.116 24.3208 114.513 24.1925 113.7 24.0868C112.741 23.9358 111.95 23.7623 111.325 23.566C110.7 23.3698 110.156 23.0226 109.691 22.5245C109.241 22.0264 109.015 21.317 109.015 20.3962C109.015 19.6264 109.226 18.9472 109.647 18.3585C110.083 17.7547 110.708 17.2868 111.521 16.9547C112.349 16.6226 113.322 16.4566 114.441 16.4566C115.268 16.4566 116.089 16.5547 116.903 16.7509C117.73 16.9321 118.413 17.1887 118.951 17.5208L117.818 20.034C116.786 19.4302 115.661 19.1283 114.441 19.1283C113.714 19.1283 113.17 19.234 112.806 19.4453C112.443 19.6566 112.262 19.9283 112.262 20.2604C112.262 20.6377 112.458 20.9019 112.85 21.0528C113.242 21.2038 113.867 21.3472 114.724 21.483C115.682 21.6491 116.467 21.8302 117.077 22.0264C117.687 22.2075 118.217 22.5472 118.667 23.0453C119.118 23.5434 119.343 24.2377 119.343 25.1283C119.343 25.883 119.125 26.5547 118.689 27.1434C118.253 27.7321 117.614 28.1925 116.772 28.5245C115.944 28.8415 114.956 29 113.809 29Z" fill="white"/>
<path d="M129 28.2302C128.666 28.4868 128.252 28.683 127.758 28.8189C127.279 28.9396 126.77 29 126.233 29C124.839 29 123.756 28.6302 122.987 27.8906C122.231 27.1509 121.854 26.0642 121.854 24.6302V19.6264H120.045V16.9094H121.854V13.9434H125.253V16.9094H128.172V19.6264H125.253V24.5849C125.253 25.0981 125.376 25.4981 125.623 25.7849C125.884 26.0566 126.248 26.1925 126.712 26.1925C127.25 26.1925 127.707 26.0415 128.085 25.7396L129 28.2302Z" fill="white"/>
</svg>
