<svg width="31" height="28" viewBox="0 0 31 28" fill="none" xmlns="http://www.w3.org/2000/svg">
<path fill-rule="evenodd" clip-rule="evenodd" d="M28.1006 4.36416C30.1407 5.89419 30.5541 8.78831 29.0241 10.8284L18.4315 24.9518C16.9015 26.9919 14.0073 27.4053 11.9673 25.8753C10.7596 24.9695 10.122 23.5857 10.1201 22.184L10.1043 22.1844C10.1043 18.5764 9.31226 17.3444 5.96826 17.5204C5.96826 17.5194 5.96827 17.5184 5.96828 17.5174C5.9098 17.5195 5.85104 17.5206 5.79204 17.5206C3.16758 17.5206 1.04004 15.3931 1.04004 12.7686C1.04004 10.1441 3.16758 8.0166 5.79204 8.0166C8.41632 8.0166 10.5437 10.1439 10.544 12.7681C10.5441 12.7682 10.5442 12.7683 10.5443 12.7684C10.5443 19.8666 10.95 19.3371 17.9174 10.2448C17.9357 10.2209 17.9541 10.1969 17.9725 10.1729L21.6364 5.28762C23.1665 3.24757 26.0606 2.83412 28.1006 4.36416Z" fill="white"/>
</svg>
