<?xml version="1.0" standalone="no"?>
<!DOCTYPE svg PUBLIC "-//W3C//DTD SVG 1.1//EN" "http://www.w3.org/Graphics/SVG/1.1/DTD/svg11.dtd" >
<svg xmlns="http://www.w3.org/2000/svg">
<metadata>Generated by IcoMoon</metadata>
<defs>
<font id="lineicons" horiz-adv-x="1024">
<font-face units-per-em="1024" ascent="960" descent="-64" />
<missing-glyph horiz-adv-x="1024" />
<glyph unicode="&#x20;" horiz-adv-x="512" d="" />
<glyph unicode="&#xe900;" glyph-name="AngleDown-md" d="M512 243.503l326.246 326.247 30.17-30.17-356.416-356.416-356.419 356.416 30.17 30.17 326.249-326.247z" />
<glyph unicode="&#xe901;" glyph-name="AngleDown-sm" d="M169.373 553.37l45.255 45.255 297.373-297.371 297.375 297.371 45.254-45.255-342.63-342.625-342.628 342.625z" />
<glyph unicode="&#xe902;" glyph-name="AngleLeft-md" d="M328.836 426.667l326.246 326.247-30.17 30.17-356.416-356.417 356.416-356.42 30.17 30.17-326.246 326.251z" />
<glyph unicode="&#xe903;" glyph-name="AngleLeft-sm" d="M617.372 137.376l45.252 45.254-265.37 265.372 265.37 265.372-45.252 45.255-310.627-310.627 310.627-310.627z" />
<glyph unicode="&#xe904;" glyph-name="AngleRight-md" d="M695.164 426.667l-326.249 326.247 30.17 30.17 356.418-356.417-356.418-356.42-30.17 30.17 326.249 326.251z" />
<glyph unicode="&#xe905;" glyph-name="AngleRight-sm" d="M438.628 137.376l-45.255 45.254 265.373 265.372-265.373 265.372 45.255 45.255 310.627-310.627-310.627-310.627z" />
<glyph unicode="&#xe906;" glyph-name="AngleUp-md" d="M512 609.832l326.246-326.248 30.17 30.17-356.416 356.418-356.419-356.418 30.17-30.17 326.249 326.248z" />
<glyph unicode="&#xe907;" glyph-name="AngleUp-sm" d="M169.373 342.63l45.255-45.254 297.373 297.372 297.375-297.372 45.254 45.254-342.63 342.627-342.628-342.627z" />
<glyph unicode="&#xe908;" glyph-name="Calendar-md" d="M213.333 768c-23.564 0-42.667-19.103-42.667-42.667v-85.333h682.667v85.333c0 23.564-19.102 42.667-42.667 42.667h-597.333zM128 597.334v-469.333c0-47.129 38.205-85.333 85.333-85.333h597.333c47.129 0 85.333 38.204 85.333 85.333v597.333c0 47.128-38.204 85.333-85.333 85.333h-597.333c-47.128 0-85.333-38.205-85.333-85.333v-128zM853.333 597.334v-469.333c0-23.565-19.102-42.667-42.667-42.667h-597.333c-23.564 0-42.667 19.102-42.667 42.667v469.333h682.667zM256 469.334v-85.333h85.333v85.333h-85.333zM341.333 298.667v-85.333h-85.333v85.333h85.333zM469.333 469.334v-85.333h85.333v85.333h-85.333zM554.667 298.667v-85.333h-85.333v85.333h85.333zM682.667 469.334v-85.333h85.333v85.333h-85.333zM768 298.667v-85.333h-85.333v85.333h85.333z" />
<glyph unicode="&#xe909;" glyph-name="Calendar-sm" d="M256 768c-35.346 0-64-28.654-64-64v-64h640v64c0 35.346-28.653 64-64 64h-512zM128 576v-384c0-70.694 57.308-128 128-128h512c70.694 0 128 57.306 128 128v512c0 70.692-57.306 128-128 128h-512c-70.692 0-128-57.308-128-128v-128zM832 576v-384c0-35.347-28.653-64-64-64h-512c-35.346 0-64 28.653-64 64v384h640z" />
<glyph unicode="&#xe90a;" glyph-name="Checkbox-md" d="M809.476 594.173l144.977 159.476-31.573 28.701-137.506-151.259c-62.255 83.12-161.532 136.909-273.374 136.909-188.513 0-341.333-152.82-341.333-341.332 0-188.514 152.82-341.333 341.333-341.333s341.333 152.819 341.333 341.333c0 60.873-15.936 118.021-43.857 167.506zM778.999 560.651c20.258-40.295 31.667-85.809 31.667-133.984 0-164.949-133.717-298.667-298.667-298.667s-298.667 133.717-298.667 298.667c0 164.948 133.718 298.665 298.667 298.665 100.826 0 189.986-49.962 244.066-126.48l-244.8-269.282-197.515 197.513-30.17-30.17 229.152-229.154 266.266 292.891z" />
<glyph unicode="&#xe90b;" glyph-name="Checkbox-sm" d="M836.474 653.448l146.874 156.662-46.694 43.772-139.45-148.751c-70.278 77.901-172.024 126.865-285.203 126.865-212.077 0-384-171.923-384-384 0-212.080 171.923-384.003 384-384.003s384 171.923 384 384.003c0 75.569-21.83 146.040-59.526 205.452zM790.957 604.899c26.131-46.361 41.043-99.891 41.043-156.902 0-176.733-143.27-320.003-320-320.003s-320 143.27-320 320.003c0 176.731 143.269 320 320 320 96.253 0 182.579-42.497 241.242-109.752l-273.983-292.252-168.631 168.631-45.254-45.254 215.369-215.366 310.215 330.895z" />
<glyph unicode="&#xe90c;" glyph-name="Delete-sm" d="M384 832h256v-64h-256v64zM320 768v64c0 35.346 28.654 64 64 64h256c35.347 0 64-28.654 64-64v-64h192v-64h-64v-640c0-35.347-28.653-64-64-64h-512c-35.346 0-64 28.653-64 64v640h-64v64h192zM704 704h-448v-640h512v640h-64z" />
<glyph unicode="&#xe90d;" glyph-name="Folder-md" d="M533.333 640h277.333c47.13 0 85.333-38.205 85.333-85.333v-341.333c0-47.13-38.204-85.333-85.333-85.333h-597.333c-47.128 0-85.333 38.204-85.333 85.333v469.333c0 47.128 38.205 85.333 85.333 85.333h256l64-128zM442.965 725.334h-229.632c-23.564 0-42.667-19.103-42.667-42.667v-469.333c0-23.565 19.103-42.667 42.667-42.667h597.333c23.565 0 42.667 19.102 42.667 42.667v341.333c0 23.564-19.102 42.667-42.667 42.667h-303.701l-64 128z" />
<glyph unicode="&#xe90e;" glyph-name="Folder-sm" d="M544 636h224c70.694 0 128-57.308 128-128v-252c0-70.694-57.306-128-128-128h-512c-70.692 0-128 57.306-128 128v384c0 70.692 57.308 128 128 128h213.333l74.667-132zM432.006 704h-176.006c-35.346 0-64-28.654-64-64v-384c0-35.347 28.654-64 64-64h512c35.347 0 64 28.653 64 64v252c0 35.346-28.653 64-64 64h-261.327l-74.667 132z" />
<glyph unicode="&#xe90f;" glyph-name="Inbox-md" d="M312.268 725.334c-17.068 0-32.493-10.172-39.217-25.859l-98.632-230.141h209.58c0-70.694 57.306-128 128-128s128 57.306 128 128h209.579l-98.628 230.141c-6.724 15.688-22.153 25.859-39.219 25.859h-399.463zM170.667 426.667v-256c0-23.565 19.103-42.667 42.667-42.667h597.333c23.565 0 42.667 19.102 42.667 42.667v256h-176.043c-18.948-73.609-85.769-128-165.291-128s-146.344 54.391-165.29 128h-176.044zM129.817 469.334c1.155 5.508 2.855 10.901 5.083 16.098l98.935 230.85c13.447 31.376 44.298 51.719 78.434 51.719h399.463c34.138 0 64.986-20.343 78.434-51.719l98.935-230.85c2.227-5.197 3.925-10.59 5.082-16.098h1.818v-298.667c0-47.13-38.204-85.333-85.333-85.333h-597.333c-47.128 0-85.333 38.204-85.333 85.333v298.667h1.817z" />
<glyph unicode="&#xe910;" glyph-name="More-md" d="M298.667 448c0-35.345-28.654-64-64-64s-64 28.655-64 64c0 35.345 28.654 64 64 64s64-28.655 64-64zM597.333 448c0-35.345-28.655-64-64-64s-64 28.655-64 64c0 35.345 28.655 64 64 64s64-28.655 64-64zM896 448c0-35.345-28.655-64-64-64s-64 28.655-64 64c0 35.345 28.655 64 64 64s64-28.655 64-64z" />
<glyph unicode="&#xe911;" glyph-name="No-md" d="M681.459 180.698l155.217-194.022 33.314 26.654-155.234 194.039c58.982 54.562 95.91 132.617 95.91 219.298 0 164.95-133.717 298.668-298.667 298.668-62.929 0-121.311-19.462-169.458-52.695l-155.217 194.022-33.317-26.654 155.233-194.042c-58.981-54.559-95.908-132.616-95.908-219.299 0-164.949 133.718-298.667 298.667-298.667 62.929 0 121.31 19.465 169.459 52.698zM688.026 240.79l-318.749 398.433c40.777 27.435 89.881 43.445 142.724 43.445 141.385 0 256-114.615 256-256.001 0-73.199-30.724-139.221-79.974-185.877zM335.975 612.549l318.749-398.435c-40.777-27.435-89.882-43.447-142.724-43.447-141.385 0-256 114.615-256 256 0 73.199 30.722 139.224 79.976 185.882z" />
<glyph unicode="&#xe912;" glyph-name="No-sm" d="M759.962 154.778l113.408-113.408 45.254 45.254-113.408 113.408c56.634 66.906 90.784 153.447 90.784 247.965 0 212.077-171.923 384-384.001 384-94.518 0-181.061-34.149-247.963-90.782l-113.41 113.41-45.255-45.255 113.41-113.41c-56.633-66.902-90.782-153.444-90.782-247.963 0-212.074 171.923-383.997 384-383.997 94.518 0 181.064 34.144 247.963 90.778zM759.776 245.478l-450.297 450.293c55.164 45.142 125.679 72.226 202.52 72.226 176.731 0 320.001-143.268 320.001-320 0-76.84-27.085-147.357-72.224-202.519zM264.224 650.517l450.291-450.293c-55.162-45.146-125.676-72.224-202.516-72.224-176.732 0-320 143.264-320 319.997 0 76.841 27.084 147.356 72.225 202.52z" />
<glyph unicode="&#xe913;" glyph-name="Plus-md" d="M490.667 405.334v-320h42.667v320h320v42.667h-320v320h-42.667v-320h-320v-42.667h320z" />
<glyph unicode="&#xe914;" glyph-name="Today-md" d="M213.333 768c-23.564 0-42.667-19.103-42.667-42.667v-85.333h682.667v85.333c0 23.564-19.102 42.667-42.667 42.667h-597.333zM128 597.334v-469.333c0-47.13 38.205-85.333 85.333-85.333h597.333c47.13 0 85.333 38.204 85.333 85.333v597.333c0 47.128-38.204 85.333-85.333 85.333h-597.333c-47.128 0-85.333-38.205-85.333-85.333v-128zM853.333 597.334v-469.333c0-23.565-19.102-42.667-42.667-42.667h-597.333c-23.564 0-42.667 19.102-42.667 42.667v469.333h682.667z" />
<glyph unicode="&#xe915;" glyph-name="Tomorrow-md" d="M490.667 853.334h42.667v-170.667h-42.667v170.667zM512 298.667c70.694 0 128 57.306 128 128s-57.306 128-128 128c-70.694 0-128-57.306-128-128s57.306-128 128-128zM512 256c94.255 0 170.667 76.412 170.667 170.667 0 94.257-76.412 170.667-170.667 170.667-94.257 0-170.667-76.41-170.667-170.667 0-94.255 76.41-170.667 170.667-170.667zM533.333-0v170.667h-42.667v-170.667h42.667zM870.839 658.474l21.333-36.95-147.802-85.333-21.333 36.95 147.802 85.333zM300.965 280.192l-21.333 36.949-147.802-85.333 21.333-36.949 147.802 85.333zM131.828 621.527l21.333 36.95 147.802-85.333-21.333-36.95-147.802 85.333zM744.367 317.142l-21.333-36.949 147.802-85.333 21.333 36.949-147.802 85.333z" />
<glyph unicode="&#xe916;" glyph-name="Inbox-sm" d="M348.257 768c-27.548 0-52.004-17.628-60.716-43.761l-92.080-276.239h188.538c0-70.692 57.308-128 128-128s128 57.308 128 128h188.538l-92.077 276.239c-8.71 26.134-33.171 43.761-60.717 43.761h-327.487zM192 384v-192c0-35.347 28.654-64 64-64h512c35.347 0 64 28.653 64 64v192h-138.925c-26.355-74.573-97.477-128-181.075-128s-154.717 53.427-181.075 128h-138.925zM129.697 448c1.098 6.676 2.725 13.266 4.872 19.706l92.257 276.772c17.423 52.268 66.337 87.523 121.432 87.523h327.487c55.091 0 104.006-35.255 121.427-87.523l92.262-276.772c2.144-6.44 3.77-13.029 4.87-19.706h1.696v-256c0-70.694-57.306-128-128-128h-512c-70.692 0-128 57.306-128 128v256h1.697z" />
<glyph unicode="&#xe917;" glyph-name="Close-md" d="M481.83 426.667l-240.916 240.913 30.17 30.17 240.915-240.914 240.913 240.914 30.17-30.17-240.913-240.913 240.913-240.917-30.17-30.17-240.913 240.917-240.915-240.917-30.17 30.17 240.916 240.917z" />
<glyph unicode="&#xe918;" glyph-name="Close-sm" d="M512.001 402.743l233.375-233.373 45.254 45.254-233.375 233.373 233.375 233.373-45.254 45.255-233.375-233.373-233.373 233.373-45.255-45.255 233.373-233.373-233.373-233.373 45.255-45.254 233.373 233.373z" />
</font>
</defs>
</svg>
