<svg width="280" height="210" viewBox="0 0 280 210" fill="none" xmlns="http://www.w3.org/2000/svg">
<path d="M32.7225 117.858C32.7224 83.3227 1.06433 115.7 18.6923 159.23L39.1981 159.23C55.0271 152.035 64.7404 134.767 51.0698 138.005C93.8803 91.5964 51.0698 63.8955 32.7225 117.858Z" fill="#4B4B4B"/>
<path d="M47.3805 118.901C45.4392 111.657 56.4279 96.5538 57.0907 106.84C57.4186 111.929 51.0808 117.251 47.3805 118.901Z" fill="#323232"/>
<path d="M163.312 56.1389C126.258 43.5476 114.386 69.0891 127.697 82.0409L146.044 75.2053C158.276 72.3273 164.391 65.4924 163.312 56.1389Z" fill="#323232"/>
<path d="M62.5818 150.04H263.207L247.854 182.518H71.2158L62.5818 150.04Z" fill="#989898"/>
<path d="M80 210H83.9734L83.9998 182.517H71.2158L80 210Z" fill="#323232"/>
<path d="M236 210H232.219L235.263 182.517H247.854L236 210Z" fill="#323232"/>
<path d="M79.49 134.491L268 87.0767L232.384 166.969H88.3775L79.49 134.491Z" fill="white"/>
<path d="M172.61 110.101C160.378 84.558 139.872 106.143 154.982 122.692L179.445 154.35H183.099L185.977 148.234L185.201 139.241L172.61 110.101Z" fill="#4B4B4B"/>
<path d="M133.655 88.8755C182.466 95.3507 168.953 117.296 172.666 167.096H112.947C82.0085 119.814 84.8447 82.4003 133.655 88.8755Z" fill="#4B4B4B"/>
<path d="M101 129C117.189 165.335 139.274 156.627 167.629 150.033L169.068 144.637C141.356 146.868 128.005 138.396 117.983 109.381" stroke="white" stroke-width="2" stroke-linecap="round"/>
<path d="M165 106C171.946 118.5 174.105 128.808 171.946 138.881" stroke="white" stroke-width="2" stroke-linecap="round"/>
<path d="M168 124.5C169.008 122.836 169.823 122.523 171.5 122.535L212.5 122.535C214.433 122.363 214.219 124.05 213 125.5L194.01 153.474H148.203L168 124.5Z" fill="#323232"/>
<path d="M152.594 210H128.057V207.594L143.77 167.096L120.026 167.096C209.605 108.456 183.458 173.057 136.575 206.309C152.594 199.473 153.843 206.043 152.594 210Z" fill="#4B4B4B"/>
<path d="M178.537 210H153.959V207.234L174.824 151.531C236.098 129.528 201.202 175.576 160.434 206.309C176.453 199.474 179.786 206.043 178.537 210Z" fill="#4B4B4B"/>
<path d="M123.676 80.9611C128.353 76.6445 144.542 79.8822 149.219 84.9188C153.896 89.9553 151.4 95.8349 149.219 101.467C144.965 108.302 128.416 106.144 121.518 99.6682C119.729 90.3997 119 85.2777 123.676 80.9611Z" fill="#4B4B4B"/>
<path d="M128.776 81.3207L130.215 68.0099L139.569 74.1257L144.965 84.1987C145.325 84.5585 132.733 87.4365 128.776 81.3207Z" fill="#989898"/>
<path d="M140.879 87.6299C145.091 88.2197 152.252 77.9534 151.22 67.4247C147.306 55.4302 132.767 59.7452 129.944 67.0265C130.305 69.0673 128.239 74.379 130.16 78.8175C132.081 83.256 137.964 87.2215 140.879 87.6299Z" fill="white"/>
<path d="M135.971 66.2111C149.282 73.0464 150.002 70.5282 151.441 68.7298C160.581 45.4883 120.502 51.4613 131.295 70.5282C132.374 74.4854 135.971 69.8086 135.971 66.2111Z" fill="#323232"/>
<ellipse cx="129.544" cy="70.3272" rx="3.18195" ry="4.77293" transform="rotate(-6.12357 129.544 70.3272)" fill="white"/>
<path d="M120 91.5C120 91.5 120.502 93.6721 120.862 94.9912C125.538 105.064 146.006 108.1 149.642 98.5887L150.5 96" stroke="white" stroke-width="2" stroke-linecap="round"/>
<path d="M129.855 160.669C136.571 156.592 142.5 153.5 151.5 149" stroke="white" stroke-width="2" stroke-linecap="round"/>
<path d="M179.5 150C177.701 161.512 168.709 174.699 163.312 182.254" stroke="white" stroke-width="2" stroke-linecap="round"/>
<ellipse cx="183.098" cy="137.286" rx="2.68983" ry="4.67677" transform="rotate(89.4845 183.098 137.286)" fill="white"/>
<path d="M13.6557 159.23H44.5944C53.4477 177.8 38.0364 189.494 33 210H25C19.9635 189.494 5.02169 175.779 13.6557 159.23Z" fill="white"/>
<path d="M40.515 146.559C48.4295 127.133 27.564 132.529 23.6067 160.23L36.5577 160.23C47.3503 151.956 45.1918 142.962 40.515 146.559Z" stroke="white" stroke-width="2"/>
<circle cx="203.964" cy="54.5424" r="24.5424" stroke="white" stroke-width="2"/>
<path d="M203.604 73.6092C214.333 73.6092 223.031 65.0727 223.031 54.5424C223.031 44.0121 214.333 35.4755 203.604 35.4755" stroke="white" stroke-width="2" stroke-linecap="round"/>
<path d="M203.604 40.512V67.8532" stroke="white" stroke-width="2" stroke-linecap="round"/>
<path d="M189.934 54.9021H216.555" stroke="white" stroke-width="2" stroke-linecap="round"/>
</svg>
