<svg width="250" height="250" viewBox="0 0 250 250" fill="none" xmlns="http://www.w3.org/2000/svg">
<circle cx="67" cy="118" r="27" fill="white"/>
<path fill-rule="evenodd" clip-rule="evenodd" d="M193.753 70.2485C205.344 78.9418 207.693 95.3857 199 106.977L138.815 187.224C130.121 198.815 113.678 201.164 102.086 192.471C90.4953 183.777 88.1462 167.333 96.8395 155.742L157.025 75.4954C165.718 63.9042 182.162 61.5551 193.753 70.2485Z" fill="white"/>
<path d="M141 97C96.5 155 94 160 94 118.001C79.9999 96.001 68 142.001 68 145.001C87 144.001 91.5 151.001 91.5 171.501L129.5 170.5C125.667 156.667 141 97 141 97Z" fill="white"/>
</svg>
