<svg width="280" height="210" viewBox="0 0 280 210" fill="none" xmlns="http://www.w3.org/2000/svg">
<path d="M21.5878 191.492C11.558 184.734 13.328 203.537 24.5377 210.001H55.4247C63.7718 195.899 61.4119 183.559 56.987 188.26C56.987 172.688 46.3672 171.219 43.4172 177.683C29.8475 157.411 12.5303 177.096 21.5878 191.492Z" fill="#545454"/>
<path d="M43.1659 178.277C26.1659 166.777 29.0001 199 48 210H100C114.148 186 110.666 164.776 103.166 172.776C103.166 146.276 85.1659 143.776 80.1658 154.777C57.1658 120.277 27.814 153.777 43.1659 178.277Z" fill="#3F3F3F"/>
<path d="M146.178 169.823C124.592 155.154 128.402 195.97 152.527 210.001H219.001C236.965 179.389 231.886 152.603 222.363 162.807C222.363 129.005 199.508 125.817 193.159 139.848C163.954 95.8421 126.685 138.572 146.178 169.823Z" fill="#393939"/>
<path d="M211.306 186.526C198.66 177.956 200.892 201.803 215.026 210.001H253.97C264.495 192.115 261.519 176.465 255.94 182.427C255.94 162.678 242.55 160.815 238.83 169.012C221.721 143.301 199.886 168.267 211.306 186.526Z" fill="#545454"/>
<ellipse cx="182.084" cy="108.379" rx="3.71479" ry="2.47653" transform="rotate(-135 182.084 108.379)" fill="#393939"/>
<ellipse cx="179.655" cy="111.447" rx="3.71479" ry="2.47653" transform="rotate(-105.554 179.655 111.447)" fill="#393939"/>
<ellipse cx="110.084" cy="62.3793" rx="3.71479" ry="2.47653" transform="rotate(-45 110.084 62.3793)" fill="#4B4B4B"/>
<ellipse cx="190.378" cy="48.3779" rx="5.04315" ry="3.3621" transform="rotate(-45 190.378 48.3779)" fill="#4B4B4B"/>
<ellipse cx="179.457" cy="49.0716" rx="4.2477" ry="2.8318" transform="rotate(-62.8727 179.457 49.0716)" fill="#393939"/>
<path d="M121.524 66.732C121.928 67.1089 122.561 67.087 122.938 66.6833C123.314 66.2795 123.293 65.6468 122.889 65.2699L121.524 66.732ZM114.707 59.001L115.389 58.2699C115.172 58.0676 114.877 57.9719 114.583 58.0087L114.707 59.001ZM106.583 59.0087C106.034 59.0772 105.646 59.577 105.714 60.125C105.783 60.673 106.283 61.0618 106.831 60.9933L106.583 59.0087ZM122.889 65.2699L115.389 58.2699L114.024 59.732L121.524 66.732L122.889 65.2699ZM114.583 58.0087L106.583 59.0087L106.831 60.9933L114.831 59.9933L114.583 58.0087Z" fill="white"/>
<ellipse cx="105.752" cy="60.128" rx="5.12477" ry="3.41652" transform="rotate(-22.6661 105.752 60.128)" fill="#4B4B4B"/>
<path d="M33 93.9997L130 109L109.5 124.5C86.4273 118.88 78.0036 115.599 58.2148 105.079C51.4471 106.64 49 107 33 97.6433C29.5001 95.4997 28 92.9993 33 93.9997Z" fill="#989898"/>
<path d="M38 109C46.1638 108.34 50.6887 107.669 58.5 105L46.5 102.5L38 107.5V109Z" fill="#989898"/>
<path d="M73.9788 146.381C92.2065 143.381 98.2065 144 103 145L142.707 175.881C133.937 178.741 116.5 181.5 98.2065 174.162C108.707 180.881 100.5 191 105.5 210H80C80.4287 202.344 82.2065 200.381 95.7065 203.881C85.9855 179.932 59.1778 148.817 73.9788 146.381Z" fill="white"/>
<path d="M241.707 210C242.873 200.153 244.747 189.998 239.707 189.381C220.707 187.054 223.707 175.273 203.207 173.881C187.207 172.794 195.707 151.381 160.207 150.381L149.207 177.381C171.194 188.862 180.025 189.628 195.707 190.881L230.707 197.381L236.5 207C233.5 205.5 230.5 206.5 230.707 210H241.707Z" fill="#989898"/>
<path d="M114.207 136.381C104.465 129.504 108 113.5 130 109L152.707 113.381L159.207 133.881C156.66 134.836 155.082 141.381 159.207 146.881C163.332 152.381 176.207 145.381 189.707 162.881C189.813 175.841 186.224 181.072 176.207 188.381C158.707 184.381 151.707 177.881 145.707 176.881C139.707 175.881 125 182.5 107 177C115.823 172.923 112.081 151.396 103 145C107.5 145.5 119.206 148.381 123.707 148.381C122.207 143.381 116.957 138.215 114.207 136.381Z" fill="#434343"/>
<path d="M131.707 162.881C131.707 162.881 120.707 140.881 114.706 136.881C110.055 133.78 108.542 129.595 109.093 125.381C109.94 118.91 135.206 120.881 144.706 130.381C156.733 138.381 153.348 128.425 152.707 113.381L159.207 133.881C156.66 134.836 155.082 141.381 159.207 146.881C163.332 152.381 176.207 145.381 189.707 162.881C189.813 175.841 186.224 181.072 176.207 188.381C158.707 184.381 143.207 182.381 131.707 162.881Z" fill="#282828"/>
<path d="M152.707 113.382L247 131.251C250.793 132 250.793 132.957 247 133.882C234.467 136.937 229.01 138.143 220.874 131.251C195.923 134.571 182.159 135.842 159.207 133.882C134.207 136.881 139.207 110.882 152.707 113.382Z" fill="white"/>
<mask id="mask0_475_17021" style="mask-type:alpha" maskUnits="userSpaceOnUse" x="111" y="47" width="75" height="65">
<path d="M119.206 88.8804C114.207 95.8804 119.207 104.38 127.206 99.3804C128.706 109.38 137.707 104.88 139.207 104.88C145.973 112.614 149.683 108.903 151.688 106.899L151.707 106.88C160.207 114.88 164.207 110.88 164.207 106.88C174.207 110.88 176.706 105.88 172.207 99.3804C183.206 102.38 182.207 90.38 175.707 84.8802C191.707 90.8804 184.706 75.3804 177.206 71.8804C186.706 71.8804 180.707 60.3804 170.207 58.8802C179.707 52.8803 164.207 49.3804 157.207 52.8803C160.707 46.3801 150.706 45.8796 145.707 51.38C135.707 45.38 128.707 49.3802 133.707 54.8805C123.207 51.38 117.707 56.8802 123.207 62.8804C111.207 63.8804 111.207 75.3804 119.207 75.3804C107.207 80.8804 112.207 90.8804 119.206 88.8804Z" fill="#989898"/>
</mask>
<g mask="url(#mask0_475_17021)">
<rect x="104.707" y="45.3804" width="98" height="76" fill="#4B4B4B"/>
<path d="M145.707 90.8804C147.207 100.88 159.707 99.3804 157.707 92.3804C161.707 97.8804 170.707 95.8804 166.707 87.8804C175.707 92.3804 177.207 82.8804 172.207 79.3804C177.207 82.3804 183.747 80.208 177.207 71.8804L209.707 79.3804V155.38H111.707L98.2065 95.8804L112.207 81.3804C112.207 84.8804 118.207 87.8804 122.207 83.8804C120.707 89.3804 124.824 95.726 131.207 90.8804H145.707Z" fill="#393939"/>
</g>
<path d="M146.207 112.381L149.707 99.3806L137.707 101.381L130.707 110.881C127.156 116.86 133.647 115.121 146.207 112.381Z" fill="#989898"/>
<path d="M130.323 106.479C126.389 104.741 125.706 92.0985 132.207 83.5986C141.966 75.3753 152.162 86.8353 150.707 94.5987C149.308 96.1604 148.252 101.828 144.235 104.619C140.218 107.41 133.047 107.682 130.323 106.479Z" fill="white"/>
<ellipse cx="149.185" cy="97.7467" rx="3.70074" ry="5.55111" transform="rotate(70.1492 149.185 97.7467)" fill="white"/>
<path d="M138.207 84.5996C129.707 90.0996 128.706 82.0995 135.206 80.0995C144.206 76.0995 153.707 82.5996 152.707 89.5996C151.589 97.4258 143.707 96.0998 144.707 87.0998C141.206 92.5998 133.207 90.0996 138.207 84.5996Z" fill="#4B4B4B"/>
<path d="M163.533 70.0162C162.989 70.1122 162.626 70.6309 162.722 71.1748C162.818 71.7186 163.336 72.0817 163.88 71.9858L163.533 70.0162ZM180.707 68.001L180.88 68.9858C181.204 68.9287 181.478 68.7167 181.615 68.4185L180.707 68.001ZM190.115 49.9185C190.346 49.4166 190.126 48.8229 189.624 48.5923C189.122 48.3617 188.528 48.5816 188.298 49.0835L190.115 49.9185ZM176.707 52.501H175.707C175.707 52.814 175.853 53.109 176.103 53.2981L176.707 52.501ZM177.707 41.001C177.707 40.4487 177.259 40.001 176.707 40.001C176.154 40.001 175.707 40.4487 175.707 41.001H177.707ZM163.88 71.9858L180.88 68.9858L180.533 67.0162L163.533 70.0162L163.88 71.9858ZM181.615 68.4185L185.865 59.1685L184.048 58.3335L179.798 67.5835L181.615 68.4185ZM185.865 59.1685L190.115 49.9185L188.298 49.0835L184.048 58.3335L185.865 59.1685ZM185.56 57.9539L177.31 51.7039L176.103 53.2981L184.353 59.5481L185.56 57.9539ZM177.707 52.501V41.001H175.707V52.501H177.707Z" fill="white"/>
<path d="M169.539 98.4463C169.232 97.9867 168.611 97.8626 168.152 98.1689C167.692 98.4753 167.568 99.0961 167.874 99.5557L169.539 98.4463ZM172.707 105.001L171.874 105.556C172.15 105.969 172.688 106.118 173.136 105.904L172.707 105.001ZM183.636 100.904C184.135 100.666 184.347 100.07 184.109 99.571C183.872 99.0724 183.275 98.8607 182.777 99.0981L183.636 100.904ZM180.396 107.586C180.719 108.034 181.344 108.135 181.792 107.812C182.24 107.488 182.341 106.863 182.017 106.415L180.396 107.586ZM167.874 99.5557L171.874 105.556L173.539 104.446L169.539 98.4463L167.874 99.5557ZM173.136 105.904L178.386 103.404L177.527 101.598L172.277 104.098L173.136 105.904ZM178.386 103.404L183.636 100.904L182.777 99.0981L177.527 101.598L178.386 103.404ZM177.146 103.086L180.396 107.586L182.017 106.415L178.767 101.915L177.146 103.086Z" fill="white"/>
<ellipse cx="178.474" cy="38.1161" rx="5.10248" ry="3.40165" transform="rotate(-60.4874 178.474 38.1161)" fill="#4B4B4B"/>
<ellipse cx="174.646" cy="46.8176" rx="4.64543" ry="3.09696" transform="rotate(-135 174.646 46.8176)" fill="#4B4B4B"/>
<ellipse cx="184.421" cy="100.478" rx="3.71479" ry="2.47653" transform="rotate(180 184.421 100.478)" fill="#393939"/>
<path d="M130 206C121.036 206 112.072 196.048 115.913 192.73C119.755 189.411 130 198.038 130 206Z" fill="#545454"/>
<path d="M227.896 115.478C220.787 114.538 214.702 105.846 218.091 103.664C221.479 101.482 228.716 109.275 227.896 115.478Z" fill="#545454"/>
<path d="M32.6369 155.002C25.1367 155.002 13.3924 140.479 23.5 142.501C28.5 143.501 32.0001 151 32.6369 155.002Z" fill="#545454"/>
<path d="M229.5 177C224 175.036 220.417 168.18 225.605 169.266C231.5 170.5 236.5 179.5 229.5 177Z" stroke="white" stroke-width="2"/>
<path d="M66 189C57 183 58 175 65.9999 181.5C73.9999 188 75 195 66 189Z" stroke="white" stroke-width="2"/>
<path d="M53.8815 59.0951C50.8009 59.569 37.0569 60.2799 29 53.6449C33.4934 51.0686 39.5 48 43.5 48.5004C47.1218 48.9535 47.6548 49.4715 49 49.4999C50.5798 52.8964 53.6919 58.9055 53.8815 59.0951Z" fill="#797979"/>
<path d="M55 74.5L53 56.5C53.6667 57.3333 58 60 59.5 65C59 67.3333 57 72.9 55 74.5Z" fill="#797979"/>
<path d="M61.2274 56.0142C64.5449 54.5924 77.8151 45.1137 78.9999 29C71.0909 32.4971 60.5 36.5 57.5 42L55.5402 45.1137C55.0662 41.3223 51.5117 38.9526 49.1421 38.0047L41.0852 35.1611C41.8358 36.5551 44.6289 40.3579 45.5 42C45.9739 49.109 44.5 56.0142 55.5402 59.5C60.5 68.5 67.7896 69.9928 72.6019 71.1801L61.2274 56.0142Z" fill="white"/>
<circle cx="50.5" cy="42.5" r="1.5" fill="#323232"/>
<path d="M237.186 141.305C229.778 137.811 225.779 135.589 219.409 130.339L231.521 132.227L237.714 139.901L237.186 141.305Z" fill="white"/>
<path d="M160 133.5C155 138 156 148 164 149.5C172 151 183.5 153.5 190.5 166" stroke="white" stroke-width="2" stroke-linecap="round"/>
<path d="M109 125C107 136 119 137.5 125 151C131 164.5 137.095 170.812 144.5 177.5" stroke="white" stroke-width="2" stroke-linecap="round"/>
</svg>
