<?xml version="1.0" standalone="no"?>
<!DOCTYPE svg PUBLIC "-//W3C//DTD SVG 1.1//EN" "http://www.w3.org/Graphics/SVG/1.1/DTD/svg11.dtd" >
<svg xmlns="http://www.w3.org/2000/svg">
<metadata>Generated by IcoMoon</metadata>
<defs>
<font id="lineicons" horiz-adv-x="1024">
<font-face units-per-em="1024" ascent="960" descent="-64" />
<missing-glyph horiz-adv-x="1024" />
<glyph unicode="&#x20;" horiz-adv-x="512" d="" />
<glyph unicode="&#xe900;" glyph-name="AngleDown-md" d="M140.497 584.837c16.663 16.662 43.677 16.662 60.34 0l311.163-311.164 311.164 311.164c16.661 16.662 43.678 16.662 60.339 0s16.661-43.677 0-60.34l-341.333-341.333c-16.661-16.661-43.678-16.661-60.339 0l-341.334 341.333c-16.662 16.663-16.662 43.677 0 60.34z" />
<glyph unicode="&#xe901;" glyph-name="AngleLeft-md" d="M670.17 712.837c-16.661 16.662-43.678 16.662-60.339 0l-256-256c-16.662-16.661-16.662-43.678 0-60.339l256-256c16.661-16.661 43.678-16.661 60.339 0s16.661 43.678 0 60.339l-225.83 225.83 225.83 225.83c16.661 16.663 16.661 43.677 0 60.34z" />
<glyph unicode="&#xe902;" glyph-name="AngleRight-md" d="M396.497 712.837c16.663 16.662 43.678 16.662 60.34 0l256-256c16.661-16.661 16.661-43.678 0-60.339l-256-256c-16.661-16.661-43.677-16.661-60.34 0s-16.662 43.678 0 60.339l225.831 225.83-225.831 225.83c-16.662 16.663-16.662 43.677 0 60.34z" />
<glyph unicode="&#xe903;" glyph-name="AngleUp-md" d="M481.83 670.17c16.661 16.662 43.678 16.662 60.339 0l341.333-341.334c16.661-16.661 16.661-43.678 0-60.339s-43.678-16.661-60.339 0l-311.164 311.163-311.163-311.163c-16.663-16.661-43.677-16.661-60.34 0s-16.662 43.678 0 60.339l341.334 341.334z" />
<glyph unicode="&#xe904;" glyph-name="Calendar-md" d="M384 853.334v-42.667h256v42.667c0 23.564 19.102 42.667 42.667 42.667s42.667-19.103 42.667-42.667v-42.667h42.667c94.255 0 170.667-76.41 170.667-170.667v-469.333c0-94.255-76.412-170.667-170.667-170.667h-512c-94.257 0-170.667 76.412-170.667 170.667v469.333c0 94.257 76.41 170.667 170.667 170.667h42.667v42.667c0 23.564 19.103 42.667 42.667 42.667s42.667-19.103 42.667-42.667zM640 682.667v42.667h-256v-42.667c0-23.564-19.103-42.667-42.667-42.667s-42.667 19.103-42.667 42.667v42.667h-42.667c-47.128 0-85.333-38.205-85.333-85.333v-469.333c0-47.13 38.205-85.333 85.333-85.333h512c47.13 0 85.333 38.204 85.333 85.333v469.333c0 47.128-38.204 85.333-85.333 85.333h-42.667v-42.667c0-23.564-19.102-42.667-42.667-42.667s-42.667 19.103-42.667 42.667zM298.667 554.667h426.667c23.565 0 42.667-19.102 42.667-42.667s-19.102-42.667-42.667-42.667h-426.667c-23.564 0-42.667 19.102-42.667 42.667s19.103 42.667 42.667 42.667z" />
<glyph unicode="&#xe905;" glyph-name="Check-md" d="M904.158 713.5c17.028-16.288 17.63-43.296 1.34-60.325l-469.333-490.666c-7.932-8.299-18.877-13.047-30.357-13.171-11.479-0.128-22.526 4.373-30.644 12.493l-234.667 234.667c-16.662 16.661-16.662 43.678 0 60.339s43.677 16.661 60.34 0l203.819-203.819 439.18 459.141c16.286 17.029 43.294 17.629 60.322 1.341z" />
<glyph unicode="&#xe906;" glyph-name="Checkbox-md" d="M929.024 740.981c14.921 18.238 12.233 45.119-6.007 60.041-18.236 14.921-45.116 12.233-60.041-6.004l-352.32-430.618-137.433 154.612c-15.655 17.612-42.624 19.199-60.236 3.543-17.612-15.654-19.199-42.623-3.543-60.236l170.667-192c8.299-9.335 20.271-14.566 32.764-14.31 12.489 0.256 24.239 5.969 32.149 15.637l384 469.335zM213.333 426.667c0 164.948 133.718 298.665 298.667 298.665 46.938 0 91.23-10.797 130.641-30.002 21.184-10.322 46.724-1.519 57.045 19.665 10.325 21.183 1.519 46.723-19.661 57.045-50.803 24.756-107.857 38.626-168.026 38.626-212.077 0-384-171.923-384-383.999 0-212.079 171.923-384 384-384 212.079 0 384 171.921 384 384 0 24.555-2.313 48.61-6.737 71.949-4.39 23.153-26.722 38.361-49.873 33.969s-38.357-26.72-33.967-49.871c3.439-18.121 5.244-36.855 5.244-56.047 0-164.949-133.717-298.667-298.667-298.667s-298.667 133.717-298.667 298.667z" />
<glyph unicode="&#xe907;" glyph-name="Clock-md" d="M853.333 426.667c0 188.513-152.819 341.333-341.333 341.333s-341.333-152.82-341.333-341.333c0-188.514 152.82-341.333 341.333-341.333s341.333 152.819 341.333 341.333zM938.667 426.667c0-235.639-191.027-426.667-426.667-426.667-235.642 0-426.667 191.027-426.667 426.667 0 235.642 191.025 426.667 426.667 426.667 235.639 0 426.667-191.025 426.667-426.667zM554.667 640v-195.661l115.503-115.503c16.661-16.661 16.661-43.678 0-60.339s-43.678-16.661-60.339 0l-128 128c-8 8-12.497 18.854-12.497 30.17v213.333c0 23.564 19.102 42.667 42.667 42.667s42.667-19.103 42.667-42.667z" />
<glyph unicode="&#xe908;" glyph-name="Close-md" d="M286.17 712.837c-16.663 16.662-43.677 16.662-60.34 0s-16.662-43.677 0-60.34l225.831-225.83-225.831-225.83c-16.662-16.661-16.662-43.678 0-60.339s43.677-16.661 60.34 0l225.83 225.83 225.83-225.83c16.661-16.661 43.678-16.661 60.339 0s16.661 43.678 0 60.339l-225.83 225.83 225.83 225.83c16.661 16.663 16.661 43.677 0 60.34s-43.678 16.662-60.339 0l-225.83-225.831-225.83 225.831z" />
<glyph unicode="&#xe909;" glyph-name="Delete-md" d="M426.667 768c-23.564 0-42.667-19.103-42.667-42.667v-42.667h256v42.667c0 23.564-19.102 42.667-42.667 42.667h-170.667zM298.667 682.667v42.667c0 70.692 57.308 128 128 128h170.667c70.694 0 128-57.308 128-128v-42.667h128c23.565 0 42.667-19.103 42.667-42.667s-19.102-42.667-42.667-42.667h-42.667v-512c0-47.13-38.204-85.333-85.333-85.333h-426.667c-47.128 0-85.333 38.204-85.333 85.333v512h-42.667c-23.564 0-42.667 19.103-42.667 42.667s19.103 42.667 42.667 42.667h128zM725.333 597.334h-426.667v-512h426.667v512z" />
<glyph unicode="&#xe90a;" glyph-name="Edit-md" d="M814.272 667.457l-487.428-496.79h-70.844v70.844l496.789 487.428 61.483-61.482zM362.667 85.334l512.516 522.36c32.781 33.414 32.529 87.002-0.572 120.103l-61.483 61.482c-33.101 33.101-86.69 33.356-120.102 0.571l-522.359-512.516v-192h192z" />
<glyph unicode="&#xe90b;" glyph-name="EyeOff-md" d="M512 725.334c79.902 0 155.14-19.967 220.996-55.183l-75.456-58.69c-44.902 18.4-94.046 28.539-145.54 28.539-150.654 0-281.218-86.785-344.108-213.333 23.299-46.882 55.887-88.307 95.344-121.886l-68.518-53.291c-52.348 48.051-93.755 107.831-120.055 175.177 68.272 174.82 238.342 298.667 437.338 298.667zM864.077 566.359l79.317 61.19c18.658 14.393 22.114 41.186 7.723 59.843-14.396 18.658-41.186 22.115-59.844 7.722l-746.667-576.001c-18.658-14.391-22.115-41.186-7.722-59.844 14.393-18.654 41.186-22.114 59.844-7.718l141.94 109.495c53.625-21.325 112.11-33.045 173.332-33.045 198.997 0 369.067 123.844 437.338 298.667-20.164 51.639-49.212 98.828-85.261 139.692zM796.343 514.109l-161.911-124.903c-15.535-50.833-61.858-88.222-117.231-90.436l-96.573-74.496c29.292-7.151 59.892-10.94 91.372-10.94 150.656 0 281.22 86.784 344.107 213.333-15.868 31.932-36.045 61.329-59.763 87.442zM512 554.667c20.075 0 39.074-4.622 55.983-12.86l-181.358-141.056c-1.721 8.371-2.625 17.037-2.625 25.916 0 70.694 57.306 128 128 128z" />
<glyph unicode="&#xe90c;" glyph-name="EyeOn-md" d="M512 213.334c150.656 0 281.22 86.784 344.107 213.333-62.891 126.548-193.451 213.333-344.107 213.333-150.654 0-281.218-86.785-344.108-213.333 62.89-126.549 193.454-213.333 344.108-213.333zM512 725.334c198.997 0 369.067-123.846 437.338-298.667-68.271-174.822-238.34-298.667-437.338-298.667-198.996 0-369.065 123.844-437.338 298.667 68.272 174.82 238.342 298.667 437.338 298.667zM554.667 426.667c0 23.565-19.102 42.667-42.667 42.667s-42.667-19.102-42.667-42.667c0-23.565 19.102-42.667 42.667-42.667s42.667 19.102 42.667 42.667zM640 426.667c0-70.694-57.306-128-128-128s-128 57.306-128 128c0 70.694 57.306 128 128 128s128-57.306 128-128z" />
<glyph unicode="&#xe90d;" glyph-name="Folder-md" d="M853.333 213.334c0-47.13-38.204-85.333-85.333-85.333h-512c-47.128 0-85.333 38.204-85.333 85.333v469.333c0 23.564 19.103 42.667 42.667 42.667h185.056c14.711 0 28.384-7.578 36.183-20.053l56.533-90.453c23.39-37.425 64.41-60.16 108.54-60.16h211.021c23.565 0 42.667-19.103 42.667-42.667v-298.667zM213.333 810.667c-70.692 0-128-57.308-128-128v-469.333c0-94.255 76.41-170.667 170.667-170.667h512c94.255 0 170.667 76.412 170.667 170.667v298.667c0 70.692-57.306 128-128 128h-211.021c-14.707 0-28.382 7.578-36.177 20.053l-56.533 90.453c-23.394 37.425-64.414 60.16-108.546 60.16h-185.056z" />
<glyph unicode="&#xe90e;" glyph-name="GitHub-md" d="M512 853.334c-235.591 0-426.667-191.040-426.667-426.667 0-188.514 122.24-348.446 291.805-404.873 21.297-3.947 28.195 9.28 28.195 20.518v79.428c-118.685-25.813-143.395 50.347-143.395 50.347-19.413 49.318-47.396 62.438-47.396 62.438-38.72 26.487 2.951 25.92 2.951 25.92 42.845-2.987 65.387-43.985 65.387-43.985 38.045-65.207 99.805-46.362 124.16-35.447 3.805 27.554 14.862 46.4 27.093 57.033-94.755 10.842-194.382 47.428-194.382 210.88 0 46.613 16.675 84.656 43.947 114.523-4.409 10.773-19.023 54.187 4.16 112.925 0 0 35.84 11.449 117.369-43.733 34.027 9.458 70.507 14.187 106.773 14.365 36.267-0.178 72.781-4.907 106.88-14.365 81.459 55.182 117.227 43.733 117.227 43.733 23.219-58.773 8.606-102.187 4.194-112.925 27.379-29.867 43.913-67.948 43.913-114.523 0-163.878-99.806-199.966-194.807-210.526 15.287-13.227 29.261-39.181 29.261-79.006v-117.082c0-11.345 6.827-24.678 28.48-20.48 169.421 56.495 291.52 216.388 291.52 404.834 0 235.627-191.040 426.667-426.667 426.667z" />
<glyph unicode="&#xe90f;" glyph-name="Inbox-md" d="M853.333 426.667v-213.333c0-47.13-38.204-85.333-85.333-85.333h-512c-47.128 0-85.333 38.204-85.333 85.333v213.333h127.129c1.164-0.418 4.412-1.911 10.141-6.571 10.632-8.644 22.001-21.739 36.434-40.055 38.922-49.404 99.567-81.374 167.629-81.374s128.708 31.97 167.629 81.374c14.434 18.317 25.805 31.411 36.433 40.055 5.73 4.659 8.977 6.153 10.142 6.571h127.13zM833.391 518.606c1.378-2.166 2.684-4.369 3.921-6.605h-111.979c-47.13 0-83.567-42.133-112.734-79.151-23.437-29.747-59.789-48.849-100.599-48.849s-77.163 19.102-100.6 48.849c-29.167 37.018-65.605 79.151-112.733 79.151h-111.98c1.238 2.236 2.545 4.439 3.921 6.605l106.117 167.134c15.655 24.657 42.833 39.594 72.039 39.594h286.473c29.205 0 56.384-14.937 72.038-39.594l106.116-167.134zM938.667 426.667v23.33c0 40.499-11.529 80.159-33.233 114.348l-106.121 167.134c-31.309 49.313-85.662 79.188-144.077 79.188h-286.473c-58.413 0-112.769-29.875-144.079-79.188l-106.117-167.134c-21.708-34.189-33.235-73.848-33.235-114.348v-279.33c0-70.694 57.308-128 128-128h597.333c70.694 0 128 57.306 128 128v256zM726.699 426.808c0.004 0.009-0.081-0.004-0.256-0.060 0.171 0.030 0.256 0.055 0.256 0.060zM297.3 426.808c0.001-0.004 0.088-0.030 0.257-0.060-0.174 0.055-0.259 0.068-0.257 0.060z" />
<glyph unicode="&#xe910;" glyph-name="LinkedIn-md" d="M760.887 853.334h-497.776c-98.169 0-177.778-79.609-177.778-177.778v-497.776c0-98.172 79.609-177.779 177.778-177.779h497.776c98.206 0 177.779 79.607 177.779 177.779v497.776c0 98.169-79.573 177.778-177.779 177.778zM369.778 177.78h-106.667v391.11h106.667v-391.11zM316.445 613.974c-34.347 0-62.223 28.089-62.223 62.72s27.876 62.72 62.223 62.72c34.347 0 62.222-28.089 62.222-62.72s-27.84-62.72-62.222-62.72zM796.446 177.78h-106.667v199.253c0 119.748-142.225 110.682-142.225 0v-199.253h-106.667v391.11h106.667v-62.755c49.638 91.947 248.892 98.738 248.892-88.034v-240.32z" />
<glyph unicode="&#xe911;" glyph-name="More-md" d="M298.667 426.667c0-47.13-38.205-85.333-85.333-85.333s-85.333 38.204-85.333 85.333c0 47.13 38.205 85.333 85.333 85.333s85.333-38.204 85.333-85.333zM597.333 426.667c0-47.13-38.204-85.333-85.333-85.333s-85.333 38.204-85.333 85.333c0 47.13 38.204 85.333 85.333 85.333s85.333-38.204 85.333-85.333zM896 426.667c0-47.13-38.204-85.333-85.333-85.333s-85.333 38.204-85.333 85.333c0 47.13 38.204 85.333 85.333 85.333s85.333-38.204 85.333-85.333z" />
<glyph unicode="&#xe912;" glyph-name="Nav-md" d="M213.333 640c-23.564 0-42.667-19.103-42.667-42.667s19.103-42.667 42.667-42.667h597.333c23.565 0 42.667 19.103 42.667 42.667s-19.102 42.667-42.667 42.667h-597.333zM213.333 298.667c-23.564 0-42.667-19.102-42.667-42.667s19.103-42.667 42.667-42.667h597.333c23.565 0 42.667 19.102 42.667 42.667s-19.102 42.667-42.667 42.667h-597.333z" />
<glyph unicode="&#xe913;" glyph-name="No-md" d="M247.012 836.86c-14.467 18.601-41.274 21.952-59.874 7.485s-21.951-41.274-7.484-59.874l117.184-150.665c-51.709-53.698-83.505-126.708-83.505-207.139 0-164.949 133.718-298.667 298.668-298.667 53.781 0 104.243 14.212 147.836 39.095l117.15-150.626c14.468-18.598 41.276-21.952 59.874-7.484 18.603 14.468 21.952 41.271 7.484 59.874l-117.184 150.665c51.712 53.696 83.507 126.707 83.507 207.142 0 164.947-133.717 298.665-298.667 298.665-53.786 0-104.247-14.216-147.837-39.095l-117.152 150.624zM349.99 565.466c-31.994-37.309-51.324-85.799-51.324-138.799 0-117.824 95.513-213.333 213.334-213.333 34.005 0 66.15 7.953 94.677 22.106l-256.687 330.027zM674.010 287.864l-256.689 330.027c28.529 14.152 60.674 22.107 94.679 22.107 117.82 0 213.333-95.512 213.333-213.331 0-53.005-19.332-101.495-51.324-138.803z" />
<glyph unicode="&#xe914;" glyph-name="Plus-md" d="M512 768c-23.565 0-42.667-19.103-42.667-42.667v-256h-256c-23.564 0-42.667-19.102-42.667-42.667s19.103-42.667 42.667-42.667h256v-256c0-23.565 19.102-42.667 42.667-42.667s42.667 19.102 42.667 42.667v256h256c23.565 0 42.667 19.102 42.667 42.667s-19.102 42.667-42.667 42.667h-256v256c0 23.564-19.102 42.667-42.667 42.667z" />
<glyph unicode="&#xe915;" glyph-name="Today-md" d="M341.333 896c-23.564 0-42.667-19.103-42.667-42.667v-42.667h-42.667c-94.257 0-170.667-76.41-170.667-170.667v-469.333c0-94.255 76.41-170.667 170.667-170.667h512c94.255 0 170.667 76.412 170.667 170.667v469.333c0 94.257-76.412 170.667-170.667 170.667h-42.667v42.667c0 23.564-19.102 42.667-42.667 42.667s-42.667-19.103-42.667-42.667v-42.667h-256v42.667c0 23.564-19.103 42.667-42.667 42.667zM640 725.334v-42.667c0-23.564 19.102-42.667 42.667-42.667s42.667 19.103 42.667 42.667v42.667h42.667c47.13 0 85.333-38.205 85.333-85.333v-469.333c0-47.13-38.204-85.333-85.333-85.333h-512c-47.128 0-85.333 38.204-85.333 85.333v469.333c0 47.128 38.205 85.333 85.333 85.333h42.667v-42.667c0-23.564 19.103-42.667 42.667-42.667s42.667 19.103 42.667 42.667v42.667h256z" />
<glyph unicode="&#xe916;" glyph-name="Tomorrow-md" d="M554.667 853.334c0 23.564-19.102 42.667-42.667 42.667s-42.667-19.103-42.667-42.667v-128c0-23.564 19.102-42.667 42.667-42.667s42.667 19.103 42.667 42.667v128zM512 341.334c47.125 0 85.333 38.204 85.333 85.333s-38.208 85.333-85.333 85.333c-47.13 0-85.334-38.204-85.334-85.333s38.205-85.333 85.334-85.333zM512 256c94.255 0 170.667 76.412 170.667 170.667 0 94.257-76.412 170.667-170.667 170.667-94.257 0-170.668-76.41-170.668-170.667 0-94.255 76.41-170.667 170.668-170.667zM512 170.667c23.565 0 42.667-19.102 42.667-42.667v-128c0-23.565-19.102-42.667-42.667-42.667s-42.667 19.102-42.667 42.667v128c0 23.565 19.102 42.667 42.667 42.667zM290.296 298.667c11.782-20.403 4.79-46.498-15.617-58.283l-110.851-64c-20.407-11.78-46.502-4.787-58.284 15.616-11.782 20.407-4.79 46.502 15.617 58.287l110.851 64c20.407 11.78 46.502 4.787 58.284-15.62zM902.835 603.052c20.407 11.782 27.401 37.876 15.616 58.284-11.78 20.407-37.875 27.399-58.283 15.617l-110.852-64c-20.407-11.782-27.396-37.876-15.616-58.284 11.785-20.407 37.875-27.399 58.283-15.617l110.852 64zM733.7 298.667c11.785 20.407 37.879 27.401 58.287 15.616l110.848-64c20.407-11.78 27.401-37.875 15.62-58.283-11.785-20.407-37.879-27.401-58.287-15.616l-110.848 64c-20.407 11.78-27.401 37.875-15.62 58.283zM163.828 676.951c-20.407 11.782-46.502 4.79-58.284-15.617s-4.79-46.502 15.617-58.284l110.851-64c20.407-11.782 46.502-4.79 58.284 15.617s4.79 46.502-15.617 58.284l-110.851 64z" />
<glyph unicode="&#xe917;" glyph-name="Twitter-md" d="M844.531 597.271c0.512-7.372 0.512-14.745 0.512-22.186 0-226.716-172.595-488.19-488.191-488.19v0.137c-93.228-0.137-184.519 26.569-263.002 76.919 13.556-1.63 27.18-2.445 40.838-2.479 77.26-0.068 152.311 25.856 213.092 73.587-73.42 1.395-137.803 49.267-160.295 119.155 25.719-4.962 52.22-3.942 77.463 2.953-80.046 16.175-137.634 86.502-137.634 168.179 0 0.748 0 1.461 0 2.174 23.851-13.284 50.555-20.657 77.871-21.472-75.391 50.385-98.63 150.68-53.103 229.094 87.113-107.191 215.641-172.356 353.615-179.253-13.828 59.593 5.060 122.039 49.638 163.93 69.103 64.96 177.792 61.631 242.752-7.441 38.426 7.576 75.255 21.676 108.958 41.653-12.809-39.717-39.616-73.454-75.426-94.893 34.010 4.009 67.238 13.114 98.53 27.011-23.036-34.519-52.049-64.587-85.619-88.879z" />
<glyph unicode="&#xe918;" glyph-name="AngleDown-sm" d="M146.745 621.255c24.994 24.993 65.516 24.993 90.51 0l274.745-274.746 274.746 274.746c24.992 24.993 65.517 24.993 90.509 0s24.992-65.516 0-90.51l-319.999-319.999c-24.994-24.992-65.516-24.992-90.51 0l-320 319.999c-24.993 24.994-24.993 65.516 0 90.51z" />
<glyph unicode="&#xe919;" glyph-name="AngleLeft-sm" d="M685.254 781.255c24.992-24.994 24.992-65.516 0-90.51l-242.745-242.745 242.745-242.746c24.992-24.992 24.992-65.517 0-90.509s-65.516-24.992-90.509 0l-288 287.999c-24.993 24.994-24.993 65.516 0 90.51l288 288c24.994 24.993 65.517 24.993 90.509 0z" />
<glyph unicode="&#xe91a;" glyph-name="AngleRight-sm" d="M370.745 781.255c24.994 24.993 65.516 24.993 90.51 0l287.999-288c24.992-24.994 24.992-65.516 0-90.51l-287.999-287.999c-24.994-24.992-65.516-24.992-90.51 0s-24.993 65.517 0 90.509l242.746 242.746-242.746 242.745c-24.993 24.994-24.993 65.516 0 90.51z" />
<glyph unicode="&#xe91b;" glyph-name="AngleUp-sm" d="M466.745 685.255c24.994 24.993 65.516 24.993 90.51 0l319.999-320c24.992-24.994 24.992-65.517 0-90.509s-65.517-24.992-90.509 0l-274.746 274.745-274.745-274.745c-24.994-24.992-65.516-24.992-90.51 0s-24.993 65.516 0 90.509l320 320z" />
<glyph unicode="&#xe91c;" glyph-name="Check-sm" d="M877.254 717.255c24.992-24.994 24.992-65.516 0-90.51l-415.999-415.999c-24.994-24.992-65.516-24.992-90.51 0l-224 223.999c-24.993 24.994-24.993 65.516 0 90.51s65.516 24.993 90.51 0l178.745-178.746 370.746 370.746c24.992 24.993 65.517 24.993 90.509 0z" />
<glyph unicode="&#xe91d;" glyph-name="Checkbox-sm" d="M192 448c0 176.731 143.269 320 320 320 33.924 0 66.499-5.257 97.020-14.954 33.687-10.703 69.674 7.93 80.375 41.617s-7.93 69.672-41.619 80.374c-42.905 13.633-88.546 20.963-135.776 20.963-247.423 0-448-200.577-448-448s200.577-448 448-448c247.424 0 448 200.576 448 448 0 35.346-28.653 64-64 64s-64-28.654-64-64c0-176.73-143.27-320-320-320s-320 143.27-320 320zM943.027 724.59c23.974 25.972 22.355 66.463-3.616 90.437s-66.464 22.355-90.438-3.617l-338.819-367.054-80.899 80.899c-24.994 24.993-65.516 24.993-90.51 0s-24.993-65.516 0-90.51l128-127.999c12.316-12.314 29.12-19.078 46.534-18.733s33.934 7.776 45.748 20.576l384 416.001z" />
<glyph unicode="&#xe91e;" glyph-name="Close-sm" d="M301.255 749.255c-24.994 24.993-65.516 24.993-90.51 0s-24.993-65.516 0-90.51l210.746-210.745-210.746-210.746c-24.993-24.992-24.993-65.517 0-90.509s65.516-24.992 90.51 0l210.745 210.745 210.746-210.745c24.992-24.992 65.517-24.992 90.509 0s24.992 65.517 0 90.509l-210.745 210.746 210.745 210.745c24.992 24.994 24.992 65.516 0 90.51s-65.517 24.993-90.509 0l-210.746-210.746-210.745 210.746z" />
<glyph unicode="&#xe91f;" glyph-name="Delete-sm" d="M448 768h128c35.346 0 64-28.654 64-64h-256c0 35.346 28.654 64 64 64zM256 704c0 106.038 85.962 192 192 192h128c106.042 0 192-85.962 192-192h64c35.347 0 64-28.654 64-64s-28.653-64-64-64v-384c0-106.042-85.958-192-192-192h-256c-106.038 0-192 85.958-192 192v384c-35.346 0-64 28.654-64 64s28.654 64 64 64h64zM320 576v-384c0-35.347 28.654-64 64-64h256c35.347 0 64 28.653 64 64v384h-384z" />
<glyph unicode="&#xe920;" glyph-name="Folder-sm" d="M832 256c0-35.347-28.653-64-64-64h-512c-35.346 0-64 28.653-64 64v384c0 35.346 28.654 64 64 64h107.548c21.563 0 41.676-10.858 53.507-28.886l36.174-55.123c35.492-54.083 95.832-86.658 160.521-86.658h154.25c35.347 0 64-28.653 64-64v-213.333zM256 832c-106.038 0-192-85.962-192-192v-384c0-106.042 85.962-192 192-192h512c106.042 0 192 85.958 192 192v213.333c0 106.039-85.958 192-192 192h-154.25c-21.563 0-41.676 10.858-53.507 28.886l-36.175 55.123c-35.492 54.083-95.832 86.658-160.521 86.658h-107.548z" />
<glyph unicode="&#xe921;" glyph-name="GitHub-sm" d="M512.001 874.664c-235.591 0-426.667-191.040-426.667-426.667 0-188.516 122.24-348.445 291.805-404.874 21.298-3.942 28.195 9.28 28.195 20.518v79.43c-118.684-25.811-143.395 50.349-143.395 50.349-19.414 49.312-47.396 62.432-47.396 62.432-38.72 26.49 2.951 25.92 2.951 25.92 42.845-2.982 65.387-43.981 65.387-43.981 38.044-65.21 99.805-46.362 124.16-35.45 3.805 27.558 14.862 46.4 27.093 57.030-94.755 10.848-194.382 47.43-194.382 210.883 0 46.613 16.676 84.658 43.947 114.524-4.409 10.774-19.022 54.187 4.16 112.925 0 0 35.84 11.449 117.369-43.734 34.026 9.458 70.506 14.187 106.773 14.365 36.267-0.178 72.782-4.907 106.88-14.365 81.459 55.183 117.228 43.734 117.228 43.734 23.219-58.774 8.602-102.187 4.192-112.925 27.379-29.866 43.91-67.946 43.91-114.524 0-163.875-99.802-199.964-194.806-210.524 15.288-13.229 29.262-39.181 29.262-79.008v-117.082c0-11.341 6.826-24.678 28.481-20.48 169.421 56.499 291.52 216.39 291.52 404.836 0 235.627-191.040 426.667-426.668 426.667z" />
<glyph unicode="&#xe922;" glyph-name="Inbox-sm" d="M832 384v-128c0-70.694-57.306-128-128-128h-384c-70.692 0-128 57.306-128 128v128h61.638c2.042-0.788 9.507-3.974 24.684-15.016 9.766-7.106 19.154-14.687 31.29-24.488l8.643-6.97c14.91-11.997 34.215-27.311 55.31-40.885 39.982-25.728 87.662-40.64 138.434-40.64s98.452 14.912 138.432 40.64c21.094 13.574 40.403 28.888 55.315 40.884l8.64 6.97c12.134 9.801 21.523 17.383 31.29 24.489 15.174 11.043 22.643 14.228 24.685 15.016h61.638zM711.61 671.444l89.939-159.444h-33.549c-49.997 0-92.986-34.744-134.902-68.62-17.353-14.024-34.522-27.9-51.927-39.099-19.946-12.835-43.689-20.281-69.171-20.281s-49.224 7.446-69.171 20.281c-17.405 11.199-34.574 25.075-51.927 39.099-41.916 33.876-84.908 68.62-134.902 68.62h-33.551l89.943 159.444c11.346 20.114 32.649 32.556 55.742 32.556h287.732c23.091 0 44.397-12.442 55.744-32.556zM960 384v57.217c0 33.053-8.531 65.546-24.774 94.334l-112.134 198.783c-34.035 60.342-97.946 97.667-167.226 97.667h-287.732c-69.281 0-133.188-37.324-167.228-97.667l-112.134-198.783c-16.239-28.788-24.772-61.281-24.772-94.333v-185.217c0-141.382 114.615-256 256-256h384c141.382 0 256 114.618 256 256v128z" />
<glyph unicode="&#xe923;" glyph-name="LinkedIn-sm" d="M760.89 874.664h-497.778c-98.169 0-177.778-79.609-177.778-177.778v-497.776c0-98.17 79.609-177.779 177.778-177.779h497.778c98.202 0 177.779 79.61 177.779 177.779v497.776c0 98.169-79.578 177.778-177.779 177.778zM369.779 199.11h-106.667v391.109h106.667v-391.109zM316.445 635.304c-34.346 0-62.222 28.088-62.222 62.72s27.876 62.72 62.222 62.72c34.347 0 62.223-28.089 62.223-62.72s-27.84-62.72-62.223-62.72zM796.448 199.11h-106.669v199.251c0 119.751-142.223 110.685-142.223 0v-199.251h-106.667v391.109h106.667v-62.755c49.635 91.946 248.892 98.737 248.892-88.036v-240.318z" />
<glyph unicode="&#xe924;" glyph-name="No-sm" d="M205.255 845.255c-24.994 24.993-65.516 24.993-90.51 0s-24.993-65.516 0-90.51l84.247-84.247c-44.701-62.772-70.992-139.565-70.992-222.498 0-212.077 171.923-384 384-384 82.933 0 159.725 26.291 222.496 70.995l84.25-84.25c24.992-24.992 65.517-24.992 90.509 0s24.992 65.517 0 90.509l-84.25 84.25c44.704 62.771 70.995 139.563 70.995 222.496 0 212.077-171.923 384-384 384-82.933 0-159.726-26.291-222.498-70.992l-84.247 84.247zM291.444 578.046c-22.521-38.113-35.444-82.57-35.444-130.046 0-141.382 114.615-256 256-256 47.476 0 91.933 12.922 130.048 35.443l-350.604 350.603zM732.557 317.952l-350.603 350.604c38.113 22.521 82.57 35.444 130.046 35.444 141.382 0 256-114.615 256-256 0-47.476-12.922-91.933-35.443-130.048z" />
<glyph unicode="&#xe925;" glyph-name="Today-sm" d="M320 768c-70.692 0-128-57.308-128-128v-384c0-70.694 57.308-128 128-128h384c70.694 0 128 57.306 128 128v384c0 70.692-57.306 128-128 128h-384zM64 640c0 141.385 114.615 256 256 256h384c141.382 0 256-114.615 256-256v-384c0-141.382-114.618-256-256-256h-384c-141.385 0-256 114.618-256 256v384zM384 640h256c35.347 0 64-28.654 64-64s-28.653-64-64-64h-256c-35.346 0-64 28.654-64 64s28.654 64 64 64z" />
<glyph unicode="&#xe926;" glyph-name="Twitter-sm" d="M844.531 618.602c0.512-7.372 0.512-14.745 0.512-22.186 0-226.717-172.595-488.192-488.191-488.192v0.141c-93.228-0.141-184.52 26.566-263.002 76.915 13.556-1.632 27.18-2.445 40.838-2.477 77.26-0.070 152.31 25.856 213.092 73.587-73.421 1.395-137.804 49.267-160.295 119.153 25.719-4.961 52.22-3.941 77.463 2.956-80.045 16.172-137.633 86.5-137.633 168.177 0 0.748 0 1.46 0 2.174 23.851-13.284 50.555-20.657 77.871-21.472-75.391 50.385-98.63 150.68-53.103 229.095 87.112-107.192 215.64-172.356 353.613-179.254-13.828 59.593 5.062 122.039 49.638 163.931 69.106 64.961 177.792 61.631 242.752-7.441 38.426 7.576 75.258 21.676 108.96 41.654-12.806-39.717-39.616-73.455-75.424-94.893 34.010 4.009 67.238 13.114 98.528 27.010-23.034-34.519-52.051-64.587-85.619-88.879z" />
</font>
</defs>
</svg>
